<svg xmlns="http://www.w3.org/2000/svg" viewBox="0 0 257 200"><style>.b{animation:f 2.8s ease-in-out infinite}@keyframes f{0%,38%{opacity:0}50%,88%{opacity:1}100%{opacity:0}}@media (prefers-reduced-motion:reduce){.b{animation:none;opacity:0}}</style><svg viewBox="0 0 257 200" width="100%" height="100%"><g fill="#FFF"><path d="M0 0h257v200H0V0m173.0 26.4c-3.1 1.5-5.3 4.7-5.7 8.1-2.1 5.9-.34 12.1.33 18.1.11 1.8 1.4 3.3 2.9 4.3 1.9.49 4.3.12 5.9 1.7.57.4 1.9 1.4.94 2.2-2.8 2.2-7.2 2.9-8.6 6.7-1.2 2.6-4.3 3.5-6.0 5.8-2.2 2.4-2.7 5.8-2.4 9-1.0 1.0-2.0 2.2-3.0 3.4-4.0 1.4-5.7 6.5-3.5 10.2-2.1-.07-3.9.98-5.5 2.2-.38 1.1-.79 2.3-1.2 3.5a63.7 63.7 0 01-4.3-3.2c-.05-.62-.16-1.8-.22-2.4-1.4-1.3-2.7-3.1-4.7-3.6-.36-2.2-2.0-4.5-4.5-4.3-3.7-4.4-8.1-8.1-12.4-11.9-4.0-4.3-9.5-6.8-15.1-8.5-3.6-.68-6.9 1.3-10.2 2.3-2.5.8-5.2 1.7-6.8 4.0-2.8 3.7-6.4 6.6-9.6 10.0-5.7 3.5-10.3 8.5-15.3 12.9-3.9 3.4-9.4 2.5-14.2 2.4-5.7.14-11.4-.88-17.1-.44-1.8-.09-2.4 2-3.3 3.2-2.3.84-4.2 2.4-5.8 4.2-.22 3.7-.19 8.0 2.7 10.7 3.8 3.9 9.8 2.9 14.1 6.0 4.4 2.9 9.5 7.0 15.2 5.1 3.6-1.9 5.4-5.8 6.9-9.4 2.6-2.9 4.4-6.8 8.0-8.7 4.2-2.9 8.9-5.1 13.7-7.1 4.0-3.6 6.9-8.4 11.0-12.1 2.5 2.6 4.9 5.5 6.0 9.1 1.5 4.5 4.3 8.5 8.0 11.7-1.2 2.1-2.5 4.2-4.1 6.0 2.5 1.2 5.4 1.2 8.2 1.2 2.3 1.9 4.7 3.9 7.1 5.7-7 1.4-12.0 7.1-15.1 13.2-3.1 8.6.87 19.5 9.4 23.2 6.9 2.8 14.4 4.0 21.8 5.4 7.6.39 15.4.2 23.0.65l-.48-3.2c-4.2.18-8.5-.19-12.7-.58-4.6-.45-9.3.21-13.8-1.0-6.9-1.6-14.4-2.5-20.5-6.6-5.5-4.7-7.4-13.7-3.3-20.0 3.2-4 7.2-7.6 12.1-9.3 3.0 3.4 5.9 7.1 9.7 9.7l.28-2.3c.53.3 1.0.76 1.5 1.1 5.6.39 11.3 1.1 16.9-.1 1.8-1.0 3.8-1.8 5.5-3.1 1.5-1.5 2.2-3.8 4.3-4.8l-2.8-.89c1.3.15 2.6.39 3.9.73.1-.31.5-.94.6-1.2 3.7.1 6.5-2.2 9.6-3.8 2.6-1.2 4.1-3.7 6.1-5.7.73-.1 2.1-.29 2.9-.39-.42 2.7-1.0 5.4-1.3 8.2-1.7-.72-3.4-1.4-5.2-2.0 1.2 1.3 2.7 2.4 4.3 3.3-3.7 7.8-2.2 16.7-2.0 25.1-1.6-1.4-3.3-1.2-4.9.12.7.24 2.2.74 3.0.99 5.5 4.5 6.0 12.6 3.9 19.0-.57 4.5-5.3 8.1-9.8 6.4-4.8-3.8-6.2-10.9-4.3-16.6.94-3.8 1.8-8.9 6.8-9.3.27-.56.8-1.6 1.1-2.2-3.6.23-7.2 2.4-8.6 5.9-3.4 6.6-3.2 15.4 1.5 21.3 1.8 2.6 5.5 3.7 8.5 2.7 4.3-1.9 6.8-6.4 7.5-11 1.3-5.5-.13-11.5-3.5-16.1 1.2-7.2-.99-14.7 1.3-21.8 1.0-3.6 1.8-7.3 2.0-11.0.51-.45 1.5-1.3 2.0-1.7-.48-1.8-.9-3.6-1.3-5.4-3.5-4.2-1.2-9.7-1.9-14.6-.86-3.8 2.0-7.0 3.6-10.2-3.0-3.8-5.2-9.0-4.3-14.0 1.4-2.7 4.3-4.1 5.9-6.6-4.7.94-7.1 5.8-7 10.2-.22.3-.67.8-.9 1.1.73 3.4 2.6 6.3 4.4 9.1-1.6 2.5-2.9 5.2-3.4 8.2.02 3.0.58 6.0-.02 9.0-.66 3.2.88 6.3 1.5 9.3-5.9 4.5-11.9 10.3-19.7 10.9-2.2-2.6-5.6-4.2-7.2-7.4-2.3-4.5-2.1-9.8-1.5-14.8.36-2.6 2.5-4.4 4.9-5.3.07-1.9-.06-3.9.09-5.8.53-1.8 2.5-2.3 4.1-3 1.0-2.2 2.7-4.2 2.9-6.7.2-3.4 2.2-6.8 5.6-8.1 2.2-1.3 6.2-1.4 6.3-4.9-.93.1-2.7.39-3.7.53 2.6-3.6 7.4-4.5 10.9-7.1-1.4-1.3-2.6-3.0-3.7-4.6 1.3-.65 2.7-1.2 4.1-1.8.45-.83 1.3-2.4 1.8-3.3-3.4 2.4-7.0 4.4-11.3 3.5-.5-.33-1.5-.99-2.0-1.3-.68-3.9-1.9-7.8-1.5-11.8-.05-5.0 1.3-10.6 5.7-13.7 4.9-.21 9.9-.97 14.7.07 1.8 1.5 3.4 3.3 4.8 5.2 1.1 5.5-1.1 10.9-.63 16.4.93 5.7 3.5 11.0 4.0 16.8.36 2.6-1.0 6.2 1.9 7.7.24-1.8.54-3.7.62-5.6.35-4-2.3-7.3-3.2-11.0-.87-3.5-2.1-7.2-1.2-10.8 1-4.4 1.0-9.0.34-13.5-1.5-2.9-3.7-6.2-7.1-7.1-4.8-2.0-10.0.01-15.0.06m11.9 19.9c-1.0.96-1.5 2.1-1.3 3.5.42-.09 1.2-.27 1.6-.36.5-.75 1.1-3.2-.32-3.1m-2.3 13.6c2.3-2.7 3.9-6.0 3.0-9.7-1.3 3.1-2.4 6.3-3.0 9.7m6.0-1.5c-1.7 1.7-3.5 3.6-4.1 6.1 3.4-2.7 6.9-5.9 7.2-10.6-2.2.38-2.3 2.8-3.0 4.5m-.12 7.9c1.5 2.1 3.9 3.5 5.0 5.9.89 1.9 2.0 3.7 3.6 5.1.02-5.1-3.7-9.8-8.7-11.0m9.6 8.9c-.09 1.8.49 3.8-.19 5.6-.52 2.2-2.7 4.6-.77 6.8-1.3 4.8-2.2 9.8-3.7 14.6-1.6-.47-3.2-.9-4.8-1.3-1.8 3.4-1.7 7.3-.93 11.1.09.2.26.6.35.9.7-2.9-.64-7.5 2.7-8.8l-.21-.76c.67.3 1.3.79 2.0 1.2-2.1 3.3-2.1 7.4-2.6 11.3 1.8 8.2-.42 16.6-3.5 24.2-2.3 6.6-2.5 13.7-2.9 20.6.16 3.2-2.8 5.3-3.2 8.5.45.0 1.3.04 1.8.06 1.7 3.1 3.9 7.4 8.1 7.2 3.7-.18 6.7-3.4 7.7-6.9 2.7-7.5.86-16.9-5.4-22.1 1.3-4.1.64-9.0-2.0-12.5 1.6-5.9 2.2-12.1 1.1-18.2 1.1-3.0.79-6.4 2.2-9.4.86-2.0 1.6-4.1 2.3-6.2 2.5-6.6 2.0-13.9 4.0-20.7.5-1.9-.37-3.9-1.9-5.1m-34.7 12.2c1.9-.1 3.3-1.9 5.2-2.1 2.2-.59 4.5.3 6.7.62.0-.65.0-1.9.1-2.5-4.3-.01-9.6-.22-12.1 4.1m.44 5.9c1.9.76 3.9 1.4 5.9 2.2 1.0 1.1 1.8 2.5 2.9 3.6 1.3 1.2 2.1-.4 2.9-1.3-1.8-1.0-3.4-2.3-4.2-4.3-2.4-.64-5-.55-7.5-.14m-2.6 4.5c1.5.88 3.1 1.6 4.7 2.3.5-.24 1.4-.73 1.9-.97.8 2.5 3.6 5.2 1.3 7.8 2.2-1.7 4.0-3.9 4.7-6.8-.85.7-1.6 1.4-2.5 2.1-.91-1.4-1.8-2.9-2.7-4.3-.66.4-1.3.88-1.9 1.3-1.8-.65-3.6-1.1-5.5-1.4z"/><path d="M99.8 70.7c1.4-.6 2.8-1.1 4.2-1.7 10.6 3.9 20.8 10.5 26.8 20.4-1.5 1.4-3.0 2.9-4.6 4.3-1.9-3.0-4.6-5.3-6.7-8.2-2.5-3.6-5.7-6.9-9.9-8.7-1.8-.76-3.6-1.6-5.0-3.1-1.5-.9-3.1-1.8-4.6-2.8z"/><path d="M90.5 75.4c2.2-2.7 6.4-3.3 9.6-1.8 4.6 1.8 8.4 4.9 12.6 7.5 5.1 3.7 7.4 10.4 12.8 13.8-1.0 1.4-2.1 2.9-3.6 4.0-4.4 3.4-7.4 8.2-11.7 11.8-2.0-4.0-6.2-6.5-7.7-10.8-1.9-4.6-5.5-8.2-9.3-11.3l.4 1.8c-2.9 2.6-5.8 5.4-8.3 8.5-2.7 3.6-7.6 4.1-11.0 6.9-4.5 3.3-10.7 5.5-12.9 11.2-1.5 3.7-4.4 6.8-7.6 9.2-4.1.6-8.1-1.2-11.2-3.8-4.0-3.5-9.8-3.0-14.1-5.9-3.1-1.2-2-5.4-4.7-7.2 1.1-1.9 2.4-4 4.3-5.3 6.4 3.4 14.1 4.3 21.1 2.4 8.6.44 14.9-6.4 20.5-12.1 4.7-5.3 11.0-8.9 15.6-14.4 2.0-1.3 3.9-2.7 5.3-4.6zM129.3 92.0c1.2-.79 2.5-1.6 3.6-2.6a16.5 16.5 0 003 3.5c3.2 3.0 4.7 7.8 8.8 10.0 1.2 1.1 4.1 1.4 2.7 4.0-1.4.03-1.4.4-.22 1.0-.44 5.5 2.1 10.7 5.8 14.6a8.5 8.5 0 004.3 2.2c-2.5 2.0-4.1 4.9-6.2 7.3-7.2 2.5-15.3 2.4-22.5-.36-4.6-1.9-5.7-7.4-9.7-10.0-1.5-1.1-2.4-2.9-3.9-4.0-2.3-.73-4.8-.96-7.2-1.3 2.6-4.4 6.9-7.4 10.4-11.2 3.1-3.4 6.8-6.1 9.7-9.8 1.9 2.8 4.8 4.9 6.6 7.8.52.2 1.5.89 2.1 1.1 1.1 4.0-1 8.8 1.3 12.5.96-4.1.53-8.4.58-12.6.43-.54 1.2-1.6 1.7-2.1-2.0-.79-4.1-.94-6.2-1.3-.13-.58-.37-1.7-.49-2.3-2.5-1.2-4.3-3.5-4.4-6.4z"/><path d="M31.4 99.8c2.6-.42 5.1.7 7.6 1.2 5.8.8 11.8.68 17.7 1.1-3.2 2.7-7.5 1.7-11.3 2.9-5.0 1.4-10.1-.44-14.8-2 .21-.84.6-2.5.85-3.3zM185.8 147.6c1.3-3.5 2.3-7.3 3.9-10.8 1.0 3.3 1.1 6.7.72 10.1l-4.7.6zM186.1 148.4c1.9.36 4.4-.19 5.9 1.5 5.6 5.1 5.9 13.9 3.4 20.6-1.3 3.2-4.6 4.9-8.0 4.1-1.5-2.1-3.9-4.6-2.9-7.5.88-2.8 1.3-5.8 1.8-8.8.49.0 1.4.02 1.9.03-3.6-1.7-1.8-6.6-2.2-9.9z"/></g><g fill="#333"><path d="M173.0 26.4c5.0-.05 10.2-2.1 15.0-.06 3.4.9 5.5 4.1 7.1 7.1.73 4.4.66 9.1-.34 13.5-.87 3.6.39 7.3 1.2 10.8.97 3.7 3.6 7.0 3.2 11.0-.08 1.9-.38 3.7-.62 5.6-3-1.4-1.5-5.0-1.9-7.7-.54-5.7-3.1-11.1-4.0-16.8-.52-5.5 1.7-10.9.63-16.4-1.4-1.9-3.0-3.7-4.8-5.2-4.8-1.0-9.8-.28-14.7-.07-4.3 3.0-5.7 8.7-5.7 13.7-.41 4.0.83 7.9 1.5 11.8.51.3 1.5.99 2.0 1.3 4.3.81 7.9-1.1 11.3-3.5-.45.8-1.3 2.4-1.8 3.3-1.3.59-2.7 1.2-4.1 1.8 1.1 1.6 2.2 3.3 3.7 4.6-3.5 2.6-8.3 3.5-10.9 7.1.93-.14 2.7-.4 3.7-.53-.08 3.4-4.0 3.5-6.3 4.9-3.3 1.2-5.4 4.6-5.6 8.1-.18 2.5-1.8 4.5-2.9 6.7-1.5.63-3.5 1.1-4.1 3-.15 1.9-.02 3.9-.09 5.8-2.3.89-4.5 2.7-4.9 5.3-.52 4.9-.76 10.2 1.5 14.8 1.5 3.2 5.0 4.8 7.2 7.4 7.7-.52 13.8-6.3 19.7-10.9-.65-3.0-2.1-6.1-1.5-9.3.6-3.0.04-6.0.02-9.0.56-2.9 1.8-5.7 3.4-8.2-1.8-2.8-3.7-5.7-4.4-9.1.23-.29.6-.87.9-1.1-.13-4.4 2.2-9.3 7-10.2-1.5 2.5-4.5 3.9-5.9 6.6-.9 5 1.3 10.1 4.3 14.0-1.5 3.2-4.5 6.4-3.6 10.2.76 4.9-1.5 10.3 1.9 14.6.41 1.8.83 3.6 1.3 5.4-.51.4-1.5 1.3-2.0 1.7-.27 3.7-1 7.4-2.0 11.0-2.3 7.1-.03 14.6-1.3 21.8 3.3 4.5 4.8 10.5 3.5 16.1-.63 4.5-3.1 9.0-7.5 11-3.0 1-6.7-.06-8.5-2.7-4.8-5.9-5.0-14.6-1.5-21.3 1.4-3.5 4.9-5.7 8.6-5.9-.27.5-.83 1.6-1.1 2.2-4.9.37-5.8 5.4-6.8 9.3-1.9 5.7-.49 12.7 4.3 16.6 4.4 1.6 9.3-1.9 9.8-6.4 2.1-6.3 1.6-14.4-3.9-19.0-.76-.25-2.2-.75-3.0-.99 1.5-1.3 3.2-1.6 4.9-.12-.23-8.3-1.7-17.2 2.0-25.1-1.5-.96-3.0-1.9-4.3-3.3 1.8.5 3.5 1.3 5.2 2.0.33-2.7.96-5.4 1.3-8.2-.73.1-2.1.29-2.9.3-2.0 1.9-3.5 4.5-6.1 5.7-3.1 1.6-5.9 4.0-9.6 3.8-.16.3-.49.9-.66 1.2-1.3-.34-2.6-.58-3.9-.73l2.8.89c-2.0 1.0-2.8 3.2-4.3 4.8-1.7 1.2-3.7 2.0-5.5 3.1-5.6 1.2-11.3.4-16.9.1-.53-.4-1.0-.79-1.5-1.1l-.28 2.3c-3.8-2.5-6.7-6.2-9.7-9.7-4.9 1.7-8.9 5.3-12.1 9.3-4.0 6.2-2.1 15.2 3.3 20.0 6.1 4.0 13.5 4.9 20.5 6.6 4.5 1.2 9.2.58 13.8 1.0 4.2.39 8.4.76 12.7.58l.48 3.2c-7.6-.42-15.4-.26-23.0-.65-7.3-1.3-14.8-2.6-21.8-5.4-8.5-3.7-12.5-14.6-9.4-23.2 3.0-6.1 8.1-11.7 15.1-13.2-2.4-1.8-4.8-3.8-7.1-5.7-2.8-.02-5.6-.01-8.2-1.2 1.6-1.8 2.9-3.9 4.1-6.0-3.6-3.1-6.4-7.1-8.0-11.7-1.1-3.5-3.4-6.4-6.0-9.1-4.1 3.6-6.9 8.4-11.0 12.1-4.7 1.9-9.4 4.1-13.7 7.1-3.6 1.8-5.4 5.8-8.0 8.7-1.5 3.5-3.3 7.4-6.9 9.4-5.6 1.8-10.7-2.1-15.2-5.1-4.2-3.1-10.3-2.1-14.1-6.0-2.9-2.7-2.9-7.0-2.7-10.7 1.6-1.8 3.5-3.4 5.8-4.2.93-1.2 1.5-3.2 3.3-3.2 5.7-.44 11.4.5 17.1.44 4.7.17 10.3 1.0 14.2-2.4 4.9-4.4 9.6-9.4 15.3-12.9 3.2-3.3 6.8-6.3 9.6-10.0 1.6-2.2 4.3-3.2 6.8-4.0 3.3-1 6.6-3.0 10.2-2.3 5.5 1.7 11.1 4.1 15.1 8.5 4.2 3.8 8.7 7.5 12.4 11.9 2.4-.2 4.2 2.0 4.5 4.3 2.0.59 3.3 2.3 4.7 3.6.06.6.17 1.8.22 2.4 1.4 1.1 2.8 2.2 4.3 3.2.45-1.1.86-2.3 1.2-3.5 1.6-1.2 3.4-2.2 5.5-2.2-2.1-3.7-.52-8.7 3.5-10.2 1-1.1 2.0-2.3 3.0-3.4-.31-3.1.21-6.5 2.4-9 1.7-2.2 4.8-3.1 6.0-5.8 1.4-3.7 5.8-4.4 8.6-6.7 1.0-.76-.37-1.7-.94-2.2-1.5-1.6-3.9-1.2-5.9-1.7-1.4-1-2.8-2.5-2.9-4.3-.67-6-2.4-12.2-.33-18.1.36-3.4 2.5-6.6 5.7-8.1M99.8 70.7c1.5.98 3.0 1.9 4.6 2.8 1.3 1.5 3.2 2.3 5.0 3.1 4.1 1.7 7.3 5.1 9.9 8.7 2.0 2.8 4.8 5.2 6.7 8.2 1.6-1.3 3.1-2.8 4.6-4.3-6.0-9.8-16.1-16.5-26.8-20.4-1.4.57-2.8 1.1-4.2 1.7m-9.3 4.7c-1.4 1.8-3.3 3.3-5.3 4.6-4.5 5.4-10.8 9.1-15.6 14.4-5.5 5.6-11.8 12.5-20.5 12.1-7.0 1.8-14.7 1.0-21.1-2.4-1.9 1.3-3.2 3.3-4.3 5.3 2.7 1.8 1.6 6.0 4.7 7.2 4.3 2.9 10.1 2.4 14.1 5.9 3.1 2.5 7.1 4.5 11.2 3.8 3.2-2.3 6.1-5.4 7.6-9.2 2.1-5.6 8.3-7.8 12.9-11.2 3.3-2.8 8.3-3.3 11.0-6.9 2.4-3.1 5.3-5.9 8.3-8.5l-.4-1.8c3.8 3.1 7.4 6.7 9.3 11.3 1.5 4.3 5.7 6.8 7.7 10.8 4.2-3.6 7.3-8.3 11.7-11.8 1.4-1.1 2.5-2.5 3.6-4.0-5.3-3.4-7.6-10.0-12.8-13.8-4.1-2.6-8-5.7-12.6-7.5-3.1-1.5-7.3-.92-9.6 1.8m38.8 16.6c.09 2.9 1.8 5.1 4.4 6.4.12.5.36 1.7.49 2.3 2.0.43 4.2.58 6.2 1.3-.43.5-1.2 1.6-1.7 2.1-.05 4.2.3 8.4-.58 12.6-2.3-3.6-.25-8.4-1.3-12.5-.53-.29-1.5-.89-2.1-1.1-1.8-2.9-4.7-5.0-6.6-7.8-2.8 3.6-6.6 6.4-9.7 9.8-3.4 3.7-7.7 6.8-10.4 11.2 2.4.36 4.8.59 7.2 1.3 1.5 1.1 2.4 2.9 3.9 4.0 4.0 2.6 5.1 8.1 9.7 10.0 7.1 2.8 15.2 2.9 22.5.3 2.1-2.4 3.6-5.3 6.2-7.3a8.5 8.5 0 01-4.3-2.2c-3.7-3.9-6.2-9.0-5.8-14.6-1.1-.58-1.2-1.0.22-1.0 1.3-2.5-1.5-2.9-2.7-4.0-4.1-2.1-5.5-6.9-8.8-10.0a16.5 16.5 0 01-3-3.5c-1.1.97-2.3 1.8-3.6 2.6m-97.9 7.8c-.21.8-.64 2.5-.85 3.3 4.7 1.5 9.8 3.4 14.8 2 3.7-1.2 8.1-.21 11.3-2.9-5.9-.45-11.8-.33-17.7-1.1-2.5-.51-4.9-1.6-7.6-1.2z"/><path d="M185.0 46.4c1.5-.08.8 2.4.3 3.1-.43.0-1.2.27-1.6.36-.13-1.3.32-2.5 1.3-3.5zM182.6 60.0c.54-3.3 1.7-6.5 3.0-9.7.98 3.6-.68 6.9-3.0 9.7zM188.7 58.5c.7-1.7.81-4.1 3.0-4.5-.31 4.6-3.7 7.9-7.2 10.6.66-2.4 2.4-4.3 4.1-6.1zM188.6 66.4c4.9 1.2 8.7 5.9 8.7 11.0-1.6-1.4-2.7-3.2-3.6-5.1-1.1-2.4-3.5-3.8-5.0-5.9zM198.2 75.3c1.6 1.1 2.4 3.1 1.9 5.1-1.9 6.8-1.4 14.1-4.0 20.7-.68 2.1-1.4 4.1-2.3 6.2-1.4 2.9-1.1 6.3-2.2 9.4 1.1 6.0.51 12.3-1.1 18.2 2.6 3.5 3.3 8.4 2.0 12.5 6.3 5.2 8.1 14.5 5.4 22.1-.99 3.4-3.9 6.7-7.7 6.9-4.2.2-6.4-4.0-8.1-7.2-.45-.02-1.3-.05-1.8-.06.4-3.1 3.4-5.2 3.2-8.5.41-6.9.56-14.0 2.9-20.6 3.1-7.6 5.4-16.0 3.5-24.2.46-3.8.48-7.9 2.6-11.3-.67-.41-1.3-.81-2.0-1.2l.21.7c-3.4 1.2-2.0 5.9-2.7 8.8-.09-.22-.26-.68-.35-.9-.84-3.7-.9-7.6.93-11.1 1.6.43 3.2.86 4.8 1.3 1.4-4.8 2.4-9.7 3.7-14.6-1.9-2.2.2-4.5.77-6.8.68-1.8.1-3.7.19-5.6m-12.4 72.3l4.7-.64c.43-3.4.31-6.8-.72-10.1-1.6 3.5-2.6 7.2-3.9 10.8m.27.7c.36 3.2-1.4 8.2 2.2 9.9-.49-.01-1.4-.02-1.9-.03-.48 2.9-.99 5.9-1.8 8.8-1.0 2.8 1.3 5.3 2.9 7.5 3.4.8 6.7-.85 8.0-4.1 2.5-6.7 2.2-15.5-3.4-20.6-1.4-1.7-3.9-1.1-5.9-1.5zM163.5 87.5c2.5-4.3 7.7-4.1 12.1-4.1-.03.6-.08 1.9-.1 2.5-2.2-.32-4.5-1.2-6.7-.62-1.9.27-3.3 2.0-5.2 2.1zM164 93.5c2.5-.41 5.0-.5 7.5.1.77 2.0 2.4 3.3 4.2 4.3-.73.9-1.5 2.5-2.9 1.3-1.0-1.1-1.9-2.4-2.9-3.6-1.9-.81-3.9-1.4-5.9-2.2zM161.3 98.0c1.9.3 3.7.84 5.5 1.4.66-.45 1.3-.89 1.9-1.3.9 1.4 1.8 2.9 2.7 4.3.84-.72 1.6-1.4 2.5-2.1-.73 2.8-2.5 5.0-4.7 6.8 2.2-2.5-.47-5.3-1.3-7.8-.49.2-1.4.73-1.9.97-1.6-.75-3.2-1.5-4.7-2.3z"/></g></svg><svg class="b" viewBox="0 0 257 200" width="100%" height="100%"><g fill="#FFF"><path d="M0 0h257v200H0V0m174.1 35.9c-.62 2.6-1.6 5.2-2.3 7.9.25 3.1.65 6.3.92 9.5-4.0.96-8.6 1.7-10.8 5.8-3.5-3.2-8.7-2.0-12.3.36-.6 1.2-1.1 2.5-1.7 3.8-4.9 2.5-8.3 7.4-9.9 12.7-1.2 3.9-.73 9.4 3.3 11.4 2.2 1.3 4.7.09 6.9-.45.0 2.9.43 5.8.79 8.7-.01.9 1.0.87 1.6.99.1-3.8-1.7-8.3 1.2-11.5-.16-.98-.32-1.9-.48-2.9.46-2.4.6-4.8.82-7.2 1.1-.8 2.2-1.5 3.4-2.3 1.7.31 3.5.57 5.3.73.0 1.1.0 2.1.08 3.2l-.64-.67c-5.2 5.1-9.7 12.9-7.0 20.4 1.1 3.7 5.3 5.4 9.0 4.8 1.9 3.9 5.2 7.0 8.6 9.7-.76-1.8-1.6-3.6-2.7-5.3 2.1-1.3 4.4-2.6 6.1-4.6-1.5.46-3.1 1.0-4.6 1.7-.49-1.5-1.0-3.0-1.5-4.5-.72 1.1-2.1 3.3-2.8 4.4l2.1-1.2c.53.4 1.5 1.2 2.1 1.7-.65.4-1.9 1.3-2.6 1.7-1.3-1.2-2.5-2.5-3.8-3.8 4.9-1.9 8.6-6.0 11.0-10.7 1.8.53 3.6.03 5.2-1.1-1.7-.81-3.4-.68-5.0.37 1.8-4.6 2.0-9.9-.61-14.3 1.8-.99 3.6-2.0 5.3-3.2-1.8.2-3.6.5-5.4.73 2.9-1.9 6.0-4.1 9.7-4.2 1.3 1.3 2.8 2.5 4.5 3.4 1.1 1.2 1.8 3.8 4.0 3.3 2.9-.64 4.9 1.7 7.0 3.3.68-.05 2.0-.16 2.7-.21-1.2 2.7-1.6 5.7-1.5 8.7-.72.7-1.4 1.4-2.1 2.2-2.3.64-6 .23-6.6 3.3 2.6-.7 5.2-1.4 7.9-2.0-1.0 1.3-2.2 2.6-3.1 4.0-2.6 3.8-5.3 7.6-7.8 11.6-5.2 7.9-13.5 12.9-21.8 17.2-1.6.1-3.1.38-4.7.63-2.7-3.2-5.0-6.6-7.8-9.8-3.4-5.3-1.7-12.0-3.2-17.9-.62 1.2-1.0 2.5-1.4 3.8-.77.3-2.3.9-3.0 1.2-1.3-.93-2.6-1.8-3.8-2.8-.07-.62-.2-1.8-.27-2.4-3.3-2.9-5.5-7.2-9.9-8.8-3.5-3.8-7.3-7.3-11.3-10.7-3.6-3.9-8.4-6.5-13.4-8.3-3.0-1.5-6.6-.61-9.6.68-3.3 1.3-7.3 1.8-9.6 5.0-2.8 3.7-6.4 6.6-9.6 10.0-5.0 3.2-9.4 7.4-13.7 11.5-2.1 2.0-4.7 3.7-7.8 3.9-8.3.32-16.7-.82-25.1-.55-1.8-.13-2.4 1.9-3.4 3.1-2.2.94-4.1 2.5-5.8 4.2-.23 3.7-.2 8.0 2.7 10.8 3.8 3.8 9.8 2.9 14.1 6.0 4.4 2.9 9.5 7.0 15.2 5.1 3.6-1.9 5.3-5.8 6.9-9.4 2-2.1 3.4-4.8 5.5-6.9 4.9-3.7 10.5-6.5 16.2-8.9 4.0-3.6 6.9-8.5 11.1-12.1 2.6 2.8 5.0 6.0 6.2 9.8 1.5 4.3 4.4 8.0 7.7 11.2-1.3 2.0-2.6 4.0-4.1 6.0 2.6 1.0 5.3.96 8.1 1.2 2.6 1.5 4.7 3.8 7.2 5.6-6.8 1.3-11.6 6.8-14.9 12.7-2.8 7.4-.59 16.3 5.5 21.4 5.6 4.1 12.8 5.0 19.4 6.5 7.8 2.1 16.0 1.1 24.0 1.6 7.9.44 16.1.21 23.6-2.7 2.8-1.4 5.6-3.1 8.4-4.6.56-.9 1.1-1.8 1.6-2.7l.45.0c3.7-5.3 6.2-12.2 4.0-18.6-2.7-8.5-10.6-14.2-19.0-16.5 7.5-4.1 14.5-9.6 18.9-17.1 3.8-7.3 10.6-13.4 11.3-22.1-.27-3.0-.02-6.0.54-9.0-.25-7.1-5-13.6-3.7-20.8.88-4.6 1.3-9.4.2-14.1-.99-2.3-2.8-4.2-4.7-5.8-4.8-3-10.7-1.2-16.0-1.1-2.1.59-5.1 1.4-5.7 4m6.9 39.1c-3.1 3.2-2.7 8.2-3.7 12.3.28.3.85 1.0 1.1 1.4.95-2.8 1.6-5.8 2.2-8.8.3-3.4 4.0-4.7 5.9-7.2-1.9.5-4.1.67-5.5 2.3m6.8 28.5c2.5-1.5 3.4-4.3 3.6-7.0-2.0 1.8-2.8 4.5-3.6 7.0m-15.6 12.8c3.1-1.3 4.1-4.8 6.2-7.2 2.3.14 4.7.2 6.7-1.0-1.3-.87-2.7-1.7-4.0-2.6-3.9 2.6-7.0 6.4-8.9 10.8z"/><path d="M177.5 35.7c2.6-2.9 6.8-2.1 10.4-2.3 1.9.11 4.1-.24 5.9.55 1.7 1.5 3.4 3.2 4.8 5.0 1.3 6.9-1.8 14.1.4 20.9 1.8 5.6 3 11.5 2.8 17.5-.89-.18-1.7-.38-2.6-.58-2.1-1.5-4.7-4.7-7.5-2.1-.65-1.0-1.3-2.1-1.9-3.2-1.6-.96-3.3-1.8-4.8-3-.64-2.0-1.1-4.0-2-6 1.8-.94 3.4-2.1 5.1-3.2.21-.5.6-1.4.86-1.9.4.0 1.1.05 1.5.07-1.1 3.5-2.3 7.0-3.4 10.6 1.5-2.7 3.4-5.2 4.5-8.2.2-2.7-1.3-5.2-.53-8.0-1.9 3.8-4.6 7.2-8.3 9.4-2.2-.12-4.5.05-6.7-.64-1.9-2.7-1.9-6.3-2.3-9.5.05-5.2-.16-11.2 3.6-15.3m15.1 31.9c1.3-1.0 3.2-1.8 3.6-3.7.22-1.3 1.7-3.3-.16-4.2-1.2 2.6-2.3 5.2-3.5 7.9z"/><path d="M171.3 54.4l1.8.52c.01 2.2-.28 4.7 1.3 6.5 1.3 2 3.8 1.5 5.8 2.2 1.5 1 2.7 2.5 4.1 3.7-4.4-1.9-8.6 1.0-11.8 3.7.41-1.4.75-2.8 1.0-4.2-.78-2.6-2.9-4.4-4.8-6.2-.98.5-1.9 1.1-2.9 1.7 1.5.96 3.1 1.7 4.5 3.0.46 1.4.58 2.9.8 4.3-.53.9-1.0 1.9-1.5 2.9 1.0.62 2.0 1.2 3.0 1.8-3.2-1.9-6.7-1.5-9.9.18-.14-2.1-.32-4.2-.37-6.3l-1.4.13c.13-.39.3-1.1.5-1.5-2.3-3.8-6.6-7.1-11.3-4.9.29-.82.7-1.5 1.1-2.3 3.4-1.1 7.1-1.3 10.2.88 2.0 3.8 3.5 7.9 3.7 12.2 2.1.14 1.4-2.6 1.4-3.9-.02-3.3-1.7-6.2-3.5-8.9 1.7-3.0 4.9-4.3 8.3-4.5l-.21-1.1z"/><path d="M139.3 78.9c1.2-6.4 5.3-12.6 11.7-14.9 1.7-.51 4.0-1.2 5.6.05 1.3 1.2 1.8 3.1 2.5 4.7-.21.6-.63 1.8-.85 2.4-3.2-.05-6.1 1.2-8.4 3.5-.38 3.2-.99 6.4-.98 9.7-2.0 1.1-4.4 2.9-6.9 1.7-2.6-1.1-3.0-4.6-2.8-7.2zM99.8 70.6c1.3-.57 2.7-1.1 4.1-1.6 10.7 3.8 20.7 10.6 26.8 20.3-1.5 1.4-2.9 2.9-4.5 4.3-3.8-4.2-7.1-8.8-11.0-12.9-2.9-3.3-7.7-4.0-10.8-7.0-1.5-.92-3.1-1.9-4.5-2.9z"/><path d="M92.7 73.6c4.6-2.2 9.3.77 13.3 3.1 3.2 2.4 7.1 4.2 9.7 7.4 3.3 3.6 5.7 8.0 9.6 11.1-2.2 3.1-5.6 5.1-8.0 8.1-2.2 2.6-4.6 5.1-7.1 7.4-2.2-4.1-6.5-6.8-8.1-11.4-1.8-4.2-5.2-7.4-8.5-10.4-1.5 3.9-5.7 6.0-8.0 9.5-2.7 4-7.9 4.5-11.5 7.5-4.9 3.5-11.7 6.1-13.4 12.6-2.0 3.0-4.3 6.1-7.6 8-4 .14-7.7-1.5-10.7-4.0-4.5-3.8-11.3-3.0-15.7-7.1-.71-2.1-1.3-4.4-3-6.1 1.1-1.9 2.3-3.8 4.2-5.2 6.5 3.3 14.1 4.3 21.3 2.4 8.3.43 14.6-6.0 19.9-11.6 4.8-5.4 11.2-9.3 16.1-14.8 3.0-1.6 4.8-4.6 7.7-6.5zM168.2 75.1c3.1-.6 5.2 3.2 5.6 5.8-.93 5.9-2.5 12.4-7.6 16.2-2.5 1.7-6.0 3.7-9.0 1.6-3.3-2.1-3.7-6.7-2.3-10.1 1.6-6.4 6.3-12.8 13.3-13.6z"/><path d="M131.6 87.4c2.4 4.3 6.5 7.3 9.0 11.6 1.4 2.5 4.1 3.9 6.5 5.5.76-.56 1.5-1.1 2.3-1.6.22 3.8.95 7.5 1.3 11.3-1.6-2.3-3.0-4.9-4.6-7.3 1.2 3.4 2.0 8.0 6.2 8.9 2.3 2.7 3.9 5.8 6.3 8.5-3.6 1.3-4.7 5.3-7.5 7.6-7.0 2.9-15.1 2.4-22.2-.14-4.7-1.9-5.9-7.4-9.9-10.1-1.4-1.1-2.4-2.8-3.9-3.9-2.3-.78-4.8-1.0-7.2-1.4 2.5-3.9 6.2-6.8 9.4-10.1 3.4-3.6 7.2-6.9 10.7-10.5 2.9 3.1 5.8 6.2 8.7 9.3 1.0 3.9-.8 8.4 1.2 12.1 1-4.1.88-8.4.53-12.7l1.9-2.3c-2.1-.45-4.2-.72-6.3-1.1l-.52-2.3c-2.3-1.2-4.2-3.3-4.4-6.0 1.7-1.2 2.4-2.9 2.2-5.0zM31.5 99.7c2.5.04 4.9.78 7.4 1.3 5.9.86 11.9.66 17.9 1.2-1.5.81-3.0 1.9-4.8 1.9-4.2.12-8.4 1.8-12.7 1.4-2.9-.8-5.9-1.4-8.7-2.4.24-.88.7-2.6.97-3.5z"/><path d="M163.7 127.3c2.5-2.2 5.8-3.4 9.1-4.2 2.0 1.0 4.0 2.3 6.3 2.8 4.1 3.0 8.6 6.2 10.3 11.4 1.9 3.3 1.2 7.2.68 10.8-1.6 2.9-3.5 5.8-5.2 8.7-5.3 3.7-11.7 5.5-18.0 6.7-7.2 1.8-14.7.88-22.0.33-4.2-.32-8.6.22-12.8-.97-5.8-1.3-11.7-2.2-17.2-4.7-9.0-3.6-11.9-17.3-4.7-24.0 2.8-3.1 6.2-5.6 10.1-7.1 2.7 3.1 5.5 6.3 8.6 9.1 2.3-.1 4.6-.71 6.9-.3 6.3.97 13.3.66 18.6-3.3 1.8-1.9 3.0-4.3 4.3-6.6 1.6.58 3.2 1.1 4.9 1.6z"/></g><g fill="#333"><path d="M174.1 35.9c.55-2.5 3.5-3.4 5.7-4 5.3-.02 11.1-1.8 16.0 1.1 1.8 1.6 3.7 3.5 4.7 5.8 1.1 4.6.68 9.4-.2 14.1-1.3 7.2 3.4 13.7 3.7 20.8-.56 2.9-.81 5.9-.54 9.0-.73 8.7-7.5 14.7-11.3 22.1-4.3 7.5-11.3 13.0-18.9 17.1 8.3 2.3 16.2 8.0 19.0 16.5 2.2 6.4-.27 13.3-4.0 18.6l-.45-.01c-.55.9-1.1 1.8-1.6 2.7-2.8 1.5-5.6 3.1-8.4 4.6-7.5 2.9-15.6 3.1-23.6 2.7-8.0-.53-16.1.49-24.0-1.6-6.6-1.4-13.8-2.4-19.4-6.5-6.1-5.0-8.3-14.0-5.5-21.4 3.2-5.8 8.0-11.3 14.9-12.7-2.4-1.8-4.6-4.0-7.2-5.6-2.7-.31-5.5-.26-8.1-1.2 1.4-1.9 2.8-3.9 4.1-6.0-3.3-3.1-6.2-6.8-7.7-11.2-1.2-3.7-3.5-6.9-6.2-9.8-4.1 3.6-7.0 8.4-11.1 12.1-5.7 2.3-11.3 5.1-16.2 8.9-2.1 2.0-3.5 4.7-5.5 6.9-1.6 3.5-3.3 7.4-6.9 9.4-5.6 1.8-10.7-2.1-15.2-5.1-4.2-3.0-10.3-2.1-14.1-6.0-2.9-2.7-2.9-7.1-2.7-10.8 1.6-1.7 3.5-3.3 5.8-4.2.96-1.1 1.6-3.2 3.4-3.1 8.3-.27 16.7.87 25.1.55 3.0-.2 5.7-1.8 7.8-3.9 4.3-4.1 8.6-8.3 13.7-11.5 3.1-3.3 6.8-6.3 9.6-10.0 2.2-3.1 6.2-3.6 9.6-5.0 2.9-1.2 6.5-2.2 9.6-.68 5.0 1.7 9.8 4.3 13.4 8.3 3.9 3.3 7.7 6.8 11.3 10.7 4.3 1.5 6.6 5.8 9.9 8.8.07.6.2 1.8.27 2.4 1.2.99 2.5 1.9 3.8 2.8.76-.31 2.2-.94 3.0-1.2.4-1.3.8-2.5 1.4-3.8 1.4 5.8-.24 12.5 3.2 17.9 2.7 3.1 5.1 6.6 7.8 9.8 1.5-.25 3.1-.49 4.7-.63 8.2-4.2 16.5-9.3 21.8-17.2 2.4-3.9 5.1-7.8 7.8-11.6.91-1.4 2.0-2.7 3.1-4.0-2.6.54-5.2 1.3-7.9 2.0.62-3.1 4.2-2.7 6.6-3.3.71-.74 1.4-1.4 2.1-2.2-.05-3.0.32-6.0 1.5-8.7-.69.0-2.0.16-2.7.21-2.1-1.5-4.1-4.0-7.0-3.3-2.2.5-2.9-2.0-4.0-3.3-1.6-.89-3.2-2.0-4.5-3.4-3.7.16-6.7 2.3-9.7 4.2 1.8-.22 3.6-.53 5.4-.73-1.7 1.1-3.5 2.2-5.3 3.2 2.7 4.3 2.4 9.6.61 14.3 1.6-1.0 3.2-1.1 5.0-.37-1.5 1.1-3.3 1.6-5.2 1.1-2.4 4.6-6.1 8.7-11.0 10.7 1.2 1.2 2.5 2.5 3.8 3.8.66-.44 1.9-1.3 2.6-1.7-.52-.42-1.5-1.2-2.1-1.7l-2.1 1.2c.72-1.1 2.1-3.3 2.8-4.4.54 1.4 1.0 2.9 1.5 4.5 1.5-.66 3.0-1.2 4.6-1.7-1.6 2.0-3.9 3.3-6.1 4.6 1.0 1.7 1.9 3.4 2.7 5.3-3.3-2.7-6.7-5.8-8.6-9.7-3.6.66-7.8-1.0-9.0-4.8-2.6-7.4 1.8-15.2 7.0-20.4l.64.6c-.02-1.1-.05-2.1-.08-3.2-1.8-.16-3.5-.42-5.3-.73-1.1.76-2.2 1.5-3.4 2.3-.22 2.4-.36 4.8-.82 7.2.16.9.32 1.9.48 2.9-3.0 3.1-1.1 7.7-1.2 11.5-.67-.12-1.7-.02-1.6-.99-.36-2.8-.77-5.7-.79-8.7-2.2.54-4.7 1.8-6.9.45-4.0-2.0-4.5-7.5-3.3-11.4 1.6-5.2 5.0-10.1 9.9-12.7.59-1.2 1.1-2.5 1.7-3.8 3.6-2.4 8.8-3.6 12.3-.36 2.1-4.1 6.7-4.8 10.8-5.8-.27-3.1-.67-6.3-.92-9.5.71-2.6 1.7-5.2 2.3-7.9m3.4-.2c-3.8 4.0-3.5 10.1-3.6 15.3.3 3.2.37 6.8 2.3 9.5 2.1.69 4.4.52 6.7.64 3.7-2.2 6.4-5.6 8.3-9.4-.83 2.7.78 5.2.53 8.0-1.0 2.9-3 5.4-4.5 8.2 1.1-3.5 2.3-7.0 3.4-10.6-.4-.02-1.1-.05-1.5-.07-.21.4-.65 1.4-.86 1.9-1.6 1.1-3.3 2.3-5.1 3.2.83 1.9 1.3 3.9 2 6 1.5 1.1 3.2 2.0 4.8 3 .63 1.0 1.2 2.1 1.9 3.2 2.8-2.5 5.3.61 7.5 2.1.88.2 1.7.4 2.6.58.1-5.9-1.0-11.8-2.8-17.5-2.3-6.8.87-14-.49-20.9-1.4-1.8-3.1-3.5-4.8-5.0-1.8-.79-3.9-.44-5.9-.55-3.5.21-7.7-.63-10.4 2.3m-6.2 18.6l.21 1.1c-3.4.18-6.5 1.4-8.3 4.5 1.8 2.6 3.5 5.5 3.5 8.9-.03 1.3.66 4.0-1.4 3.9-.19-4.3-1.7-8.4-3.7-12.2-3.1-2.1-6.7-2.0-10.2-.88-.41.7-.84 1.5-1.1 2.3 4.7-2.1 8.9 1.1 11.3 4.9-.13.3-.37 1.1-.5 1.5l1.4-.13c.05 2.1.23 4.2.37 6.3 3.2-1.7 6.7-2.0 9.9-.18-.99-.66-2.0-1.2-3.0-1.8.52-.98 1.0-1.9 1.5-2.9-.26-1.4-.38-2.9-.84-4.3-1.3-1.2-2.9-2.0-4.5-3.0.97-.57 1.9-1.1 2.9-1.7 1.9 1.7 4.0 3.5 4.8 6.2-.28 1.4-.62 2.8-1.0 4.2 3.2-2.7 7.4-5.7 11.8-3.7-1.4-1.2-2.5-2.7-4.1-3.7-1.9-.66-4.5-.2-5.8-2.2-1.6-1.8-1.3-4.3-1.3-6.5l-1.8-.52m-32.0 24.5c-.28 2.5.16 6.0 2.8 7.2 2.4 1.2 4.8-.58 6.9-1.7-.01-3.2.6-6.4.98-9.7 2.2-2.2 5.2-3.5 8.4-3.5.22-.61.6-1.8.85-2.4-.76-1.6-1.2-3.4-2.5-4.7-1.6-1.3-3.8-.56-5.6-.05-6.3 2.3-10.5 8.5-11.7 14.9m-39.4-8.2c1.4 1.0 3.0 2.0 4.5 2.9 3.1 3.0 7.9 3.6 10.8 7.0 3.8 4.1 7.2 8.7 11.0 12.9 1.5-1.4 2.9-2.8 4.5-4.3-6.1-9.7-16.1-16.5-26.8-20.3-1.4.55-2.8 1.1-4.1 1.6m-7.0 2.9c-2.8 1.8-4.6 4.9-7.7 6.5-4.8 5.5-11.2 9.3-16.1 14.8-5.3 5.5-11.6 12.0-19.9 11.6-7.1 1.9-14.7.92-21.3-2.4-1.8 1.3-3.0 3.2-4.2 5.2 1.6 1.7 2.2 3.9 3 6.1 4.4 4.0 11.1 3.2 15.7 7.1 3.0 2.5 6.7 4.2 10.7 4.0 3.2-1.8 5.6-4.9 7.6-8 1.7-6.5 8.4-9.0 13.4-12.6 3.5-2.9 8.7-3.5 11.5-7.5 2.3-3.5 6.5-5.6 8.0-9.5 3.3 3.0 6.6 6.2 8.5 10.4 1.5 4.5 5.8 7.2 8.1 11.4 2.5-2.3 4.8-4.8 7.1-7.4 2.4-2.9 5.8-4.9 8.0-8.1-3.8-3.1-6.2-7.5-9.6-11.1-2.6-3.2-6.4-5.0-9.7-7.4-3.9-2.3-8.6-5.3-13.3-3.1m75.4 1.4c-6.9.79-11.7 7.2-13.3 13.6-1.4 3.4-.97 8.0 2.3 10.1 2.9 2.0 6.4.02 9.0-1.6 5.0-3.8 6.6-10.3 7.6-16.2-.41-2.6-2.4-6.4-5.6-5.8M131.6 87.4c.19 2.1-.56 3.8-2.2 5.0.23 2.7 2.0 4.8 4.4 6.0l.52 2.3c2.1.4 4.2.69 6.3 1.1l-1.9 2.3c.35 4.2.47 8.5-.53 12.7-2.0-3.7-.19-8.1-1.2-12.1-2.9-3.0-5.8-6.2-8.7-9.3-3.5 3.5-7.3 6.8-10.7 10.5-3.2 3.3-6.9 6.2-9.4 10.1 2.4.4 4.9.63 7.2 1.4 1.4 1.1 2.4 2.8 3.9 3.9 4.0 2.7 5.2 8.2 9.9 10.1 7.0 2.6 15.1 3.0 22.2.14 2.7-2.3 3.9-6.2 7.5-7.6-2.3-2.7-3.9-5.8-6.3-8.5-4.2-.88-4.9-5.5-6.2-8.9 1.6 2.4 2.9 4.9 4.6 7.3-.43-3.7-1.1-7.5-1.3-11.3-.77.5-1.5 1.1-2.3 1.6-2.3-1.6-5.0-3-6.5-5.5-2.5-4.3-6.5-7.3-9.0-11.6M31.5 99.7c-.24.8-.73 2.6-.97 3.5 2.8 1.0 5.8 1.6 8.7 2.4 4.3.4 8.4-1.3 12.7-1.4 1.8.01 3.3-1.1 4.8-1.9-5.9-.56-11.9-.36-17.9-1.2-2.4-.56-4.9-1.3-7.4-1.3m132.2 27.5c-1.6-.45-3.3-1.0-4.9-1.6-1.2 2.2-2.4 4.6-4.3 6.6-5.2 4.0-12.3 4.3-18.6 3.3-2.3-.41-4.6.2-6.9.3-3.1-2.8-5.9-5.9-8.6-9.1-3.9 1.5-7.3 4.0-10.1 7.1-7.2 6.7-4.2 20.4 4.7 24.0 5.4 2.5 11.4 3.3 17.2 4.7 4.1 1.1 8.5.65 12.8.97 7.3.55 14.8 1.4 22.0-.33 6.3-1.1 12.6-2.9 18.0-6.7 1.7-2.9 3.5-5.7 5.2-8.7.54-3.6 1.2-7.4-.68-10.8-1.6-5.1-6.1-8.3-10.3-11.4-2.3-.51-4.3-1.7-6.3-2.8-3.2.82-6.5 1.9-9.1 4.2z"/><path d="M192.7 67.7c1.1-2.6 2.3-5.2 3.5-7.9 1.8.82.3 2.8.16 4.2-.45 1.8-2.3 2.6-3.6 3.7zM181.1 75.1c1.3-1.6 3.6-1.8 5.5-2.3-1.8 2.4-5.5 3.8-5.9 7.2-.57 2.9-1.2 5.9-2.2 8.8-.28-.36-.85-1.0-1.1-1.4 1-4.1.6-9.1 3.7-12.3zM188.0 103.6c.83-2.5 1.6-5.2 3.6-7.0-.23 2.7-1.1 5.5-3.6 7.0zM172.3 116.4c1.8-4.4 4.9-8.2 8.9-10.8 1.3.88 2.7 1.7 4.0 2.6-2.0 1.2-4.4 1.1-6.7 1.0-2.1 2.4-3.0 5.8-6.2 7.2z"/></g></svg></svg>