<svg xmlns="http://www.w3.org/2000/svg" viewBox="0 0 512 512"><path fill="#17202e" fill-rule="evenodd" d="M278.2 30.6c-6.0 2.1-14.4 10.1-17.3 16.5-3.2 7.3-3.2 21.8.074 33.0 1.2 4.2 2.1 7.8 1.9 8.0-.22.1-3.4 1.7-7.1 3.4s-8.6 5.0-11.0 7.1c-2.3 2.1-6.9 4.9-10.2 6.1-11.5 4.2-18.5 10.7-23.8 21.8-2.7 5.8-3.1 7.5-3.2 16.3-.096 9.4-.27 10.1-4.5 19l-4.4 9.2-.328 19.3c-.484 28.5 1.9 36.5 11.9 39.1 8.7 2.2 10.0 3.0 9.3 5.9-.677 2.6-6.0 9.4-15.5 19.6C192.7 267.4 184 278.2 184 280.1c0 1.0-1.7 5.1-3.9 9.1-2.1 3.9-4.8 9.9-6.0 13.3-3.1 8.9-11.1 19.0-18.4 23.3-7.5 4.4-16.5 12.7-20.4 18.8-1.6 2.6-5.1 9.9-7.6 16.2-6.5 16.3-14.6 32.7-18.6 37.8-2.0 2.6-4.7 4.8-6.8 5.5-2.7.903-4.2 2.5-7.4 8.1-2.4 4.2-7.9 11.0-14.1 17.5-5.5 5.7-10.6 11.4-11.1 12.5-1.6 3.3-2.5 12.1-1.3 14.3 1.7 3.2 7.6 4.5 21.0 4.5 14.5.049 19.4-1.5 22-7.1.926-2.0 2.4-3.4 4-3.8 7.5-1.7 12.2-3.8 13.7-6.1 1.3-1.9 1.7-5.6 1.9-17.4.295-13.8.509-15.2 2.7-19.2 3.7-6.4 17.1-18.8 24.5-22.6 9.0-4.7 13.5-9.8 20.5-22.9l6-11.3 9.4-5.5c7.1-4.1 12.2-8.2 20.4-16.3l10.9-10.7 6.5.586c9.8.883 11.6.011 17.5-8.4 5.7-8.3 19.2-22.2 26.2-27.1 2.6-1.7 7.6-4.0 11.1-5.0l6.4-1.7 5.7 4.9c6.3 5.5 15.9 16.0 23.9 26.2 7.4 9.5 10.9 10.9 22.5 9.3l5-.708 6.2 6.3 6.2 6.2-2.5 9c-1.6 6.0-2.5 11.7-2.6 17.5-.114 7.9.126 9.0 3.7 16.5l3.8 8 .054 16.1c.048 14.4-.141 16.3-1.8 18.2-1.4 1.6-2.0 4.4-2.6 12.3-.418 5.6-1.2 12.0-1.9 14.1-1.7 5.6.029 9.1 6.2 12.2 3.3 1.7 4.7 2.9 4.3 3.9-1.0 2.6 1.5 6.2 5.7 7.9 5.8 2.3 15.9 2.9 26.0 1.4 11.6-1.6 12.7-2.7 12.2-11.9-.357-6.6-.584-7.1-6.4-14.8-6.6-8.7-8.8-14-9.1-21.3-.041-.921-1.6-3.7-3.6-6.3-3.3-4.4-3.5-5.0-2.9-9.8.369-2.8 3.0-12.5 5.9-21.6 8.1-25.1 8.9-31.2 5.9-45.1-.873-4.0-1.5-10.7-1.4-14.8s-.35-8.8-.943-10.3c-.592-1.5-1.5-6.2-2.1-10.3-1.1-8.2-4.8-19.5-8.5-25.8-1.3-2.2-2.3-4.8-2.3-5.8 0-2.1-6.9-11.3-16.3-21.5-11.8-12.8-11.6-12.5-11.3-18.0.269-6.1-2.2-9.9-7.8-11.9-6.5-2.3-8.1-6.2-7.8-20.0.203-10.7.51-12.3 4.7-24.5 5.8-16.8 11.2-31.2 11.9-32.0.338-.338 2.4.322 4.6 1.4s5.7 2.4 7.7 2.8c3.4.715 3.7 1.1 4.8 5.7 1.2 5.6 2.8 8.8 8.5 17.6 4.5 7.0 7.3 13.9 9.0 22.6 1.1 5.7 1.0 6.3-1.1 9.8-1.7 2.8-2.2 5.1-2.2 9.3.16 10.5 1.5 24.5 2.5 25.8.554.6 2.2 1.2 3.7 1.2 2.3 0 2.6.351 2.2 2.3-.26 1.3.22 2.8 1.1 3.6 1.3 1.1 2.2 1.0 5.4-.418 12.3-5.5 17.9-20.8 13.0-35.5-3.0-9.2-4.0-17.5-4.9-41.5-.413-11.5-1.2-22.4-1.8-24.1-2.1-6.3-9.4-20.9-11.6-23.3-1.2-1.3-3.2-4.1-4.5-6.2-3.0-5.0-9.4-10.3-14.9-12.4-2.5-.939-6.4-3.3-8.6-5.3-5.7-5.2-13.7-7.9-22.7-7.8-3.9.065-8.5.413-10.2.772-2.0.437-5.0-.101-9.2-1.6-3.4-1.2-7.7-2.2-9.5-2.2-1.7-.009-3.6-.346-4.2-.75-.594-.437-1-7.2-1-16.7 0-14.5-.203-16.3-2.1-20-5.0-9.4-15.5-15.5-26.3-15.4-3.5.038-8.4.748-10.7 1.5m.211 5.7c-9.3 4.3-15.4 14.4-15.4 25.5.008 6.4 1.7 16.4 2.9 16.8.556.1 1.0 1.2 1.0 2.3s1.7 5.6 3.8 10.1c2.8 5.9 5.3 9.5 9.4 13.3 5.1 4.8 5.9 5.2 10.3 5.2 4.3 0 5.1-.389 9.4-4.8 7.4-7.6 11.9-19.4 11.9-30.9.011-3.4.283-4.2.985-3.2 1.3 2.0 1.3-13.3-.033-18.1-4.2-15.2-20.5-22.9-34.5-16.4m37.1 50.3c-.602.6-.402 2.3 1.5 13.9 1.1 6.6.389 14.2-1.2 12.5-.527-.527-1.1-3.3-1.4-6.3s-.76-6.9-1.0-8.8l-.519-3.3-3.5 5.8c-7.8 13.1-15.7 17.5-24.5 13.6-2.3-1.0-6.7-4.4-9.5-7.5l-5.2-5.6.536 8.2.536 8.2-1.5-4c-.863-2.2-2.0-7.7-2.6-12.2-.595-4.5-1.5-8.2-2.1-8.2-3.0 0-15.0 8.6-20.2 14.4-3.1 3.5-6.0 6.5-6.4 6.5s-.519-1.1-.249-2.5l.491-2.5-3.8 1.6c-5.2 2.1-10.1 6.2-14.6 12.1-4.1 5.4-5.0 8.1-1.3 4.1 2.0-2.2 9.5-6.7 11.1-6.7.321 0-1.9 2.4-4.9 5.4-7.6 7.4-10.5 13.9-10.5 23.6-.006 4.1.621 9.6 1.3 12.2s1.2 4.6 1.0 4.6-1.6-1.7-3.2-3.9l-2.8-3.9-3.0 6.7c-4.5 9.9-4.7 11.6-4.2 26.2l.124 3.5L205 191c2.4-4.5 2.4-3.6-.132 4.6-3.5 11.2-2.9 13.4 4.6 19.0 3.9 2.8 4.3 3.4 2.2 2.9-1.4-.339-3.4-.919-4.4-1.2-3.0-1.1 1.4 5.3 5.5 7.9 9.9 6.4 17.9 7.7 34.3 5.6 9.2-1.1 15.2-3 9.8-3-1.1 0-2.4-.51-2.8-1.1-.494-.8.2-.947 2.4-.5 1.7.349 4.6.921 6.3 1.2 1.7.351 4.1 1.2 5.2 2 3.0 2.1 7.8 1.6 12.0-1.2 2.3-1.6 6.4-3.0 10.8-3.7 10.6-1.7 9.8-3.6-1.5-3.7l-9.3-.07 4-1.7c2.2-.975 7.1-2.0 11-2.4 8.3-.837 11.5-1.5 11.5-2.5 0-1.2-15.1-1.8-20.2-.84-7.5 1.5-7.8.351-.468-2.1 5.4-1.8 8.4-2.1 15.4-1.9 11.8.469 11.9-1.3.303-3.4-6.3-1.1-9.8-1.3-11.5-.671-2.7 1.0-11.1 1.3-10.1.382.3-.317 3.7-1.3 7.6-2.3 5.4-1.3 8.5-1.6 13.3-1.0 5.9.731 9.2.043 6.8-1.4-.977-.604-11.2-2.6-13.6-2.7-.55-.018-4.1.58-7.9 1.3l-6.9 1.3-6.9 8.2c-3.8 4.5-7.1 8.2-7.4 8.2s-.228-1.0.105-2.4l.605-2.4-12.0-.721c-7.5-.453-11.5-1.0-10.7-1.6 1.8-1.2-.661-3.1-10.0-7.6-5.2-2.5-9.3-3.7-14-4.1l-6.6-.581 3.3-1.2c4.1-1.5 8.3-1.5 13.5-.121 3.8 1.0 4.0 1.0 7.2-2.6 5.1-5.9 6.8-12.2 6.6-24.7l-.113-10.7 3.3-3.5c3.8-4.0 4.2-3.1 1.3 2.6l-2.0 3.9 2.0 4.4C250.4 169.5 259.9 179 262.7 179c1.0 0 2.3.516 3.0 1.1 2.8 2.8 18.8 1.9 27.7-1.6 4.6-1.8-1.7 3.3-6.6 5.4-11.6 4.9-24.3 2.9-33.6-5.4l-5.0-4.5-.701 4.6c-.582 3.8-.273 5.5 1.8 9.7 1.3 2.8 4.1 7.0 6.1 9.4 1.9 2.3 3.6 4.5 3.6 4.7 0 1.0-5.9-2.7-6.8-4.3-.929-1.6-1.0-1.6-1.6-.018-.936 2.4-4.4.45-4.4-2.5-.009-1.2-.467-2.8-1.0-3.7-.885-1.3-1.1-1.3-1.9.09-.518.8-1.8 2.6-2.8 3.9l-1.9 2.3 6.1 3.9c5.8 3.8 6.5 4.0 15.1 4.3l9 .326 3-4.0c3.4-4.6 8.2-8.0 11.4-8.0 1.2 0 5.3-1.3 9.2-3.0 5.6-2.4 7.2-2.8 7.9-1.7.471.7.66 1.8.419 2.5-.465 1.2.682 1.7 6.6 2.7 3.7.64 5.8 2.9 4.9 5.4-.272.7.239 1.7 1.1 2.3 2.2 1.2 2.0 4.3-.371 6.8-1.1 1.1-2 2.6-2 3.3 0 1.9-3.3 4.6-5.8 4.6-1.6 0-2.1.601-2.1 2.5 0 3.2-5.1 6.4-10.3 6.4-3.7.004-12.5 4.4-12.5 6.3-.021.4 6.1.674 13.7.443 12.6-.388 14.5-.714 24.2-4.0 5.7-1.9 10.6-3.4 10.8-3.2.623.6-9.9 6.3-15.8 8.6-12.9 4.9-32.1 4.2-44.3-1.5-3.4-1.6-4.2-1.6-17.3.517-9.8 1.6-15.6 2.0-20.4 1.6-5.7-.531-6.7-.388-6.7.918 0 3.1-4.2 9.7-10.8 16.7a828 828 0 0 0-13.4 14.8l-6.6 7.5 5.7 1.2c8.1 1.7 22.7 9.0 29.4 14.7 7.5 6.3 12.7 13.0 12.0 15.4-.7 2.6-1.3 2.3-4.5-2.1-1.5-2.1-3.1-3.9-3.6-3.9-.674 0-4.0 7.0-4.0 8.4 0 .216 1.3-.11 2.9-.725 3.8-1.4 4.9-.271 2.2 2.6-2.9 3.1-2.7 3.6 1.2 3.6 5.3 0 6.2-.697 12.7-10.1 3.4-5.0 9.8-12.4 14.7-17.0 4.7-4.4 7.7-7.8 6.6-7.5-3.0.906-10.8 2.6-12 2.6-2.7.025 3.4-2.4 16.5-6.5 15.9-5.0 23.9-8.8 42.8-19.9 10.8-6.4 12.0-6.9 8.5-3.6-6.8 6.3-18.8 15.9-22.7 18.2l-3.7 2.1 9.7 9.6c5.3 5.3 11.0 11.3 12.6 13.3 3.1 4.1 4.6 4.0 4.6-.226 0-1.5 1.5-5.8 3.5-9.5 9.4-18.1 26.3-29.5 41.7-28.1l5.7.515-2.9-3.6c-1.5-2.0-5.5-6.2-8.8-9.3s-5.8-5.8-5.6-6.0-.637-1.2-1.8-2.4c-2.7-2.4-7.9-4.3-12.0-4.3-5.5 0-1.4-1.8 4.8-2.1 5.5-.284 6.0-.477 6.2-2.8.393-3.3-3.0-7.6-6.8-8.4-1.7-.374-3.7-1.8-4.6-3.3-.915-1.4-1.8-2.8-1.9-3.1-.179-.241-.999.5-1.8 1.6s-2.8 3.0-4.4 4.2l-2.9 2.0 2.6-5.7c2.0-4.3 2.7-7.8 3.0-13.7l.392-7.9-4.8 5.3c-2.6 2.9-6.3 7.4-8.1 9.9s-3.2 4.2-3.2 3.8c0-1.7 6.2-12.7 10.4-18.1 3.9-5.1 7.6-13.3 10.1-22.4l.684-2.4-3.2 2.7c-1.8 1.5-5.5 3.9-8.3 5.3-7.7 3.9-21.3 4.4-25.9 1.0-1.3-1.0-.121-1.2 7.0-1.2 7.7-.006 9.5-.374 15.2-3.1 11.4-5.4 19.3-15.4 25.4-31.8 2.3-6.3 2.4-7.0.913-7.9-5.3-3.2-11.9-9.5-14.0-13.4-1.2-2.4-2.1-4.5-2.0-4.7s3.9 3.2 8.2 7.5c9.1 9.0 12.6 10.3 20.4 7.6l4.5-1.5-2.8 2.5c-2.1 1.9-2.5 2.8-1.7 3.8 2.6 3.1 16.0 4.5 21.1 2.2 1.2-.585 1.4-.001 1.0 3.5-.377 3.2-.576 3.6-.841 1.5l-.347-2.7-3.4 1.6c-3.1 1.4-3.4 1.9-2.8 4.7.901 4.3 4.9 12.9 7.8 16.8 3.3 4.4 6.5 11.6 8.7 20.2 2.4 9.4 2.3 12.5-.725 18.1-2.1 4.0-2.4 5.5-1.8 9.3.396 2.4.77 7.7.831 11.6.062 3.9.46 7.5.886 7.9 1.6 1.6 4.0-2.6 4.5-8.0.254-3.0.821-5.7 1.2-6.0.439-.272 1.8.923 3.0 2.6 2.9 4.1 2.9 10.6-.08 14.8-3.4 4.8-1.3 5.0 3.0.296 2.9-3.1 3.9-5.0 3.9-7.6 0-1.8.71-4.7 1.5-6.2l1.5-2.8-.404 3.2c-.222 1.7-.083 3.2.31 3.2 1.0 0 2.1-8.7 1.3-10.1-.444-.718-.277-.886.4-.443 1.5.968 1.4-.494-.309-2.7-.77-1.0-2.3-5.6-3.6-10.2-1.3-4.9-2.6-8.1-3.2-7.7-.674.4-.778-6.8-.315-21.7.609-19.6.484-23.0-1.0-27.9-1.6-5.3-1.7-5.4-2.4-2.5-.697 2.9-.704 2.9-.822.3-.334-7.5-2.6-13.3-6.8-17.4-3.2-3.1-3.7-4.0-2.0-3.5 2.0.533 1.9.334-.696-3.3-4.3-5.9-9.6-11.4-12.6-12.9-3.6-1.9-3.8-1.8-2.6 1.6.588 1.6.853 5.3.589 8.0-.603 6.2-2.3 8.4-2.5 3.1-.076-2.0-1.3-6.2-2.9-9.2-3.3-6.5-9.2-10.6-17.9-12.5-4.3-.928-5.2-1.3-3.7-1.9 5.9-2.1 5.6-2.4-3.3-2.4L342.8 91l2.0 2.6c4.2 5.4 1.5 5.8-5.8.942-7.4-5.0-21.6-9.7-23.5-7.8m7.8 33.5c-1.0.731-5.9 3.4-10.8 5.9-8.7 4.6-8.8 4.6-8.2 2.0.36-1.4.881-4.0 1.1-5.7.439-2.7.172-2.5-2.2 1.8-3.6 6.7-4.5 11.0-2.7 12.6 1.1.939 1.9.683 4.1-1.2 1.4-1.3 5.8-4.5 9.7-7.1s8.1-5.8 9.4-7.2c2.6-2.8 2.4-3.2-.494-1.2m-42.9 1.8c.38 1.2 1.5 3.5 2.5 5.2s1.8 3.3 1.8 3.7-2.5.041-5.7-.715c-8.2-1.9-10.5-1.7-6.2.496 2.7 1.4 18.4 7.0 19.6 7.0.141 0-.275-1.2-.925-2.7-1.1-2.5-10.6-15.2-11.5-15.2-.216 0-.081.9.3 2.1m-41.2-.167c-1.2.489-3.1 2.8-4.3 5.1l-2.1 4.2 5.1-4.9c6.2-6.0 6.3-6.5 1.4-4.5m14.6 10.2c-.007 2.8-.247 6.3-.533 7.7q-.523 2.5 1.6-1.6c1.6-3.1 2.0-5.0 1.4-7.7-1.0-5.3-2.5-4.3-2.6 1.6M268 128.5c0 .275.2.5.5.5s.5-.225.5-.5-.225-.5-.5-.5-.5.2-.5.5m31.2 12.9c-1.2 1.5-2.6 2.3-3.5 1.9-1.3-.508-1.3-.116-.145 3.2.75 2.1 1.4 6.2 1.5 9.3s.442 7.9.807 11l.665 5.5 1.2-3.3c.68-1.8 1.2-5.3 1.2-7.6 0-3.4.396-4.4 2.1-4.9 2.0-.663 2.0-.682-.25-1.8-2.7-1.3-3.6-6.9-1.9-11.8 1.3-4.0.777-4.4-1.7-1.2M232.5 161.8c-3.8 1.7-8.7 6.1-6.9 6.0 1.7-.041 11.7-5.6 12.1-6.8.53-1.5-.586-1.4-5.2.715m101.1 21.7c-3.7 4.8-4.5 6.8-2.3 6.1 1.4-.495 7.2-9.5 6.5-10.2-.278-.277-2.1 1.6-4.1 4.1m-78.2 6.1c1.5 3.0 4.5 5.9 9.0 8.6l2.9 1.8-2.0-2.8C263.1 194.3 255.4 187 254.5 187c-.313 0 .074 1.2.861 2.7M296 193.5c0 .275.2.5.5.5s.5-.225.5-.5-.225-.5-.5-.5-.5.2-.5.5m26 1c-.718.8-.815 1.5-.229 1.5.5 0 1.2-.675 1.5-1.5s.419-1.5.2-1.5-.906.6-1.5 1.5m82.7 35.5c-.287 1.1-.115 2 .384 2 .498 0 .906-.9.9-2s-.173-2-.383-2-.619.9-.907 2m-93.8 15.7c-13.7 7.0-15.6 9.0-4.5 4.8C313.9 247.7 327.6 239 324.5 239c-.275 0-6.4 3.0-13.6 6.7m-68.7-1.6c6.3 3.6 30.1 11.0 31.5 9.6.19-.191-4.2-2.1-9.8-4.4-10.0-4.0-17.8-6.2-21.4-6.2-1.6.028-1.6.13-.179.9m115.6 20.9c-7.2 2.8-11.3 5.7-16.8 11.8-5.4 6.1-12.5 19.1-11.6 21.5.493 1.2 17.4 11.6 19.0 11.6.362 0-.079-1.4-.978-3.1-3.5-6.9-8.0-22.8-6.4-22.8.371 0 3.3 5.6 6.5 12.5 6.1 13.1 12.0 21.0 17.8 24.1 1.7.891 2.5 1.8 1.8 2.0-.788.2.149 2.2 2.6 5.5 2.1 2.8 4.4 6.3 5.1 7.6 1.2 2.3 1.1 2.4-.626 1.0-1.0-.797-3.1-2.5-4.6-3.9-1.5-1.3-2.9-2.2-3.1-2.0s-1.3 5.5-2.6 11.8c-2.6 13.4-2.3 18.0 1.9 25.8 2.2 4.2 3.1 7.2 3.5 13.1.299 4.1.771 9.3 1.0 11.4.277 2.1-.008 7.3-.632 11.6-1.4 9.7-.302 12.9 2.7 7.7 1.9-3.3 7.0-5.8 12.1-5.8 1.7 0 2.1-.591 2.1-3.6 0-4.9 2.2-13.4 7.7-29.3 3.8-11.2 4.6-14.9 5.0-22.5.2-4.9-.003-11.0-.462-13.5l-.836-4.5-2.3 4.2c-1.3 2.3-2.5 4.0-2.7 3.8-.216-.215.5-3.3 1.6-6.9 3.0-9.9 3.6-17.5 1.7-23.3-.86-2.6-1.8-7.1-2.1-9.8-1.5-12.2-12.3-36.7-16.7-37.8-4.5-1.2-15.2-.507-19.8 1.3m-170.4 21.6c-2.0 3.2-5.7 10.6-8.1 16.3s-5.7 12.2-7.3 14.3-2.8 4.0-2.5 4.2 1.0-.228 1.7-1.0 1.8-1.5 2.6-1.5c.856 0 .087 1.6-2.0 4.4-1.8 2.4-4.6 6.7-6.1 9.5-3.3 6.1-4.1 5.8-1.5-.613l2.6-6.8c.67-1.7.365-1.6-2.1.586-1.5 1.4-5.0 3.8-7.6 5.2-5.4 3.0-14.7 12.2-17.8 17.5l-2.0 3.5 3.5-3.4c4.7-4.5 4.5-3.3-.459 3.1-2.2 2.8-8.4 14.1-13.8 24.9s-11.1 21.3-12.8 23.3l-3.0 3.7 4.1 2.1c2.9 1.5 4.4 3.1 5.2 5.6 1.8 5.6 3.7 4.8 8.3-3.6 5.3-9.7 16.1-20.7 25.0-25.4 9.1-4.8 15.5-11.7 21.1-22.7 2.5-5.0 4.2-9.2 3.8-9.2s-3.4 1.1-6.6 2.5l-5.8 2.5 3-2.5c1.6-1.4 7.9-5.0 14-8.1 21.6-10.9 30.5-19.0 43.3-39.5l4.2-6.7-5.2-4.1c-6.8-5.4-22.3-12.7-28.6-13.5l-4.9-.59zm65.9-2.9a.95.9 0 0 0 1.3 0c.366-.367.0-.667-.667-.667s-1.0.3-.667.6M329 304.9c0 5.1 6.1 8.8 12.9 7.8 1.8-.276.8-1.2-5.3-5.5L329 301.9zM185.7 327c-.373 1.3-.685 3.8-.692 5.3-.01 2.0-1.0 3.8-3.7 6.3-2.0 1.8-3.0 3.0-2.1 2.6s3.3-2.3 5.5-4.3l3.9-3.5-1.1-4.5c-1.0-4.0-1.2-4.2-1.8-2m208.4 24.2c-.562 1.7-1.3 5.9-1.6 9.2s-.856 6.7-1.1 7.7-.088 1.7.398 1.7c.999 0 3.3-10.8 3.7-17.5.356-5.2-.022-5.5-1.4-1.1M391 372.5c0 .275.2.5.5.5s.5-.225.5-.5-.225-.5-.5-.5-.5.2-.5.5m-287.7 35.8c-1.2.56-2.5 2.0-2.8 3.3-.323 1.2-.999 2.3-1.5 2.3s-1.3 1.1-1.9 2.6c-1.5 4.1-10.0 14.2-16.9 20.2-6.1 5.3-8.6 9.1-7.5 11.8.43 1.1 1.0 1.0 3.6-.278 3.8-2.0 9.1-1.3 13.1 1.6 2.3 1.7 3.6 1.9 7.0 1.4 6.0-.997 8.8-2.7 13.1-7.9 2.4-3.0 5.6-5.4 9.1-7.0 5.9-2.6 6.9-4.1 8.2-12.7.915-6.1.731-6.5-1.8-4.2-2.6 2.4-7.8-.014-8.2-3.8-.501-4.9-8.8-9.4-13.5-7.3M382.5 411.7c-5.6.93-6.4 1.3-7.6 4.7-.691 1.9-1.4 3.2-1.6 3.0s-1.5.005-2.8.514c-1.8.715-2.5.568-3.0-.648-1.2-3.2-2.2 1.1-2.3 9.8l-.015 8.7 3.5 2.2c2.5 1.6 3.8 3.4 4.8 6.7 2.2 7.7 10.1 11.2 15.6 7 3.0-2.4 11.5-2.7 14.6-.5 5.5 3.8 7.3-3.1 2.2-8.9-3.5-4.0-8.4-5.9-15.4-5.8-4.5.072-4.7-.007-2.0-.878 1.6-.527 4.9-.692 7.2-.367 4.5.635 5.0.077 2.7-3.1-.8-1.1-2.2-4.8-3.1-8.3-1.5-5.4-1.9-6.0-2.9-4.5-1.0 1.4-1.8 1.5-5.0.617l-3.8-1.0 3.6.406c3.9.433 4.8-.499 4.8-4.9 0-3.5-4.1-5.6-9.5-4.7m-282.1 6.9a.95.9 0 0 0 1.3 0c.366-.367.0-.667-.667-.667s-1.0.3-.667.6m5.6.833c0 .275.2.5.5.5s.5-.225.5-.5-.225-.5-.5-.5-.5.2-.5.5m-15 14.4c0 .56.8 1.0 1.9 1.0s2.7.291 3.7.647c1.2.437 1.5.316.8-.371-1.4-1.5-6.5-2.5-6.5-1.2m33.1 3.3c-.61.7-3.8 2.1-7.1 3.1-5.0 1.5-6.0 2.1-6.0 4.1 0 2.2.009 2.2 5.2.786 4.9-1.4 10.7-5.9 10.7-8.4 0-1.4-1.5-1.2-2.8.354m240.6 6.7c1.1 1.8 3.0 4.0 4.1 4.7 1.8 1.2 2.0 1.1 2.0-1-.005-1.5-1.0-3.0-3.2-4.3-5.0-3.0-5.2-3.0-2.9.579M75.5 452c-.34.5-1.5 1-2.7 1-2.0 0-2.0.109-.482 1.6 1.2 1.2 4.1 1.7 12.6 2.1 12.7.526 16.9-.067 20.5-2.9 3.4-2.7 2.7-3.2-1.7-1.3-4.5 1.8-12.3 1.8-15.6.013-2.8-1.6-11.5-1.9-12.5-.5m314.6 5.0c-5.2 2.3-9.2 2.5-13.1.452-1.6-.84-2.9-1.0-2.9-.523 0 1.7 5.0 4.3 9.8 5.1 5.6.871 21.4-.588 24.4-2.2 2.1-1.1 2.1-1.2-.813-1.8-1.6-.35-3.9-1.1-5.1-1.8-3.1-1.6-7.1-1.4-12.1.848"/></svg>