<svg xmlns="http://www.w3.org/2000/svg" viewBox="0 0 512 512"><path fill="#17202e" fill-rule="evenodd" d="M208.4 37.0c-9.8 2.0-16.8 7.0-21.1 15.4-2.2 4.4-2.6 6.3-2.6 14.0.02 6.7.553 10.3 2.1 14.4l2.1 5.4-1.9 8.0c-1.0 4.4-2.5 8.8-3.2 9.7-1.4 2.0-17.4 11.8-19.3 11.8-3.5 0-12.3 4.3-15.6 7.7-4.4 4.5-6.7 9.8-7.2 16.6-.208 2.8-.845 7.1-1.4 9.6-1.4 6.3-1.3 11.6.515 18.5.882 3.2 1.5 7.9 1.4 10.3-.063 2.3.565 8.5 1.3 13.7 2.0 12.7 1.9 16.6-1.0 25.7-1.3 4.2-2.4 8.7-2.4 9.9 0 2.1-2.1 7.3-6.5 15.8-6.9 13.4-6.9 30.1-.009 46.9.555 1.3-3.5 2.0-29.6 5.3-16.6 2.0-32.0 4.0-34.2 4.2-8.0 1.0-7.5-2.6-7.2 54.6l.259 51.0 22 7.3c12.1 4.0 29.5 9.6 38.8 12.5l16.8 5.1 10.1-1.7 13.1-2.2c4.0-.695 23.8-4.3 29.7-5.5 7.4-1.4 8.4-1.2 8.4 1.6 0 1.4.987 3.6 2.1 4.8 2.2 2.4 11.5 5.5 16.6 5.5 1.6.002 5.9 1.5 9.7 3.4 12.4 6.2 26.0 6.7 40.4 1.3C276.8 436.5 279 433.9 279 429c0-5.1-2.2-7.5-10.9-11.9-9.2-4.6-20.4-15.8-21.5-21.6-.35-1.8-1.5-4.2-2.6-5.3-3.9-3.6-.943-17.2 9.9-45.1 3.3-8.5 7.1-19.8 8.4-25l2.3-9.4 5.9.305c3.2.168 9.2-.175 13.2-.761 10.1-1.4 14.2-.255 19.5 5.7 13.9 15.8 22.7 20.9 38.3 22.1 8.1.638 11.7 1.5 21.2 5.2 6.3 2.4 14.9 6.1 19.1 8.2 6.6 3.1 7.7 4.1 8.2 6.8.437 2.1 3.3 5.7 9.8 12.0 5.0 4.9 10.2 9.3 11.5 9.8 3.4 1.3 9.6-.718 14.0-4.6 4.6-4.2 8.3-10.8 11.0-20.0 1.1-3.8 3.9-9.9 6.2-13.5 6.8-10.6 9.0-16.4 9.6-25.4.525-9.1-.795-15.2-4.1-19.1-1.7-2.0-3.4-2.7-7.4-3.1-5.0-.488-5.2-.401-9.4 3.9-2.3 2.4-5.8 6.4-7.7 9.0-4.0 5.4-11.8 10.3-17.5 11.1-2.6.383-4.8 1.5-6.4 3.3-4.5 5.1-9.9 2.3-38.0-19.7-7.9-6.2-13.2-9.0-22.8-11.9-6.1-1.8-8.4-3.2-14.4-8.6-8.3-7.5-10.9-9.0-19.6-11.2-4.8-1.2-8.4-3.1-13.9-7.3-4.1-3.1-8.0-5.6-8.6-5.6s-1.4-.838-1.7-1.8c-1.1-3.6-19.3-10.3-34.5-12.6-2.4-.38-5.9-1.5-7.8-2.7-2.7-1.6-4.2-1.9-9.2-1.3-4.3.495-5.9.35-5.9-.55 0-.671-.655-1.9-1.4-2.8-2.3-2.5-.289-14.1 3.5-20.4 1.7-2.7 4.0-8.2 5.2-12.1 1.3-4.4 3.3-8.5 5.3-10.7 3.0-3.4 3.6-3.6 12-4.6 14.2-1.6 18.7-1.3 24.4 1.5 5.5 2.8 6.7 2.8 27.8 1.6 6.8-.403 13.0-1.0 13.7-1.5.688-.445 1.2-1.8 1.2-3.1 0-2.1.546-2.4 5.7-3.0 3.1-.348 10.4-1.4 16.2-2.5s14.4-2.3 19.3-2.9c8.2-.966 9.1-.888 13 1.1 3.5 1.8 6.1 2.1 17.9 2.4 14.7.289 18.6-.444 18.6-3.4 0-1.3.93-2.0 3-2.5 2.0-.414 3-1.1 3-2.5 0-1.0.675-2.4 1.5-3.1 1.7-1.4 1.9-4.5.5-5.5-.55-.34-1-1.6-1-2.9 0-3.2-1.7-4.3-9.8-6.3-5.5-1.3-7.1-2.1-7.5-3.8-.478-1.8-1.5-2.1-10.1-2.7l-9.5-.674-5.9 3.6c-5.7 3.5-6.0 3.6-12.6 2.9-9.7-1.0-17.8-2.9-25.2-6.0-6.2-2.6-7.0-2.6-18.3-2.1-11.5.581-11.9.533-17.5-2.2-3.1-1.5-8.9-3.3-12.9-3.9-6.6-1.0-7.6-1.4-11.7-5.5-7.3-7.3-17.2-11.0-26.2-9.8-2.9.4-4.7.131-5.9-.893-.951-.806-3.8-2.6-6.4-4.1s-4.7-3.0-4.7-3.5 1.8-1.3 4.0-2.0c3.4-1.0 4.3-1.9 6.0-5.9 1.1-2.5 3.1-8.9 4.5-14.1 2.1-8.1 2.4-11.2 2.1-22-.426-15.0-2.4-20.7-9.5-27.0-6.3-5.6-18.1-8.6-26.7-6.9m.593 3.9c-8.1 1.8-13.0 5.1-17.0 11.5-2.6 4.2-4.2 12.1-3.4 17.2l.637 4.2 2.0-2.6c2.1-2.7 5.7-3.1 6.5-.712.2.705.0 1.2-.421 1.1-2.2-.39-3.1.318-4.3 3.0-1.6 3.9.045 8.1 4.5 11.6 2.1 1.6 3.4 3.6 3.8 5.9.977 5.2 4.8 9.0 13.7 13.4 9.0 4.5 14.6 5.2 17.6 2.2 2.3-2.3 6.6-16.4 8.1-26.5 2.0-13.7-.9-27.2-7.2-33.3-6.0-5.8-16.9-9.0-24.7-7.3m-17.9 52.9c-1.8 9.8-4.2 14.7-8.2 16.7-1.8.947-5.0 2.8-7.2 4.1l-3.8 2.4 5.3 1.8c5.5 1.8 9.8 5.7 13.1 11.7 1.1 2.1 2.4 3.1 4 3.1 3.5.015 12.1 4.3 16.5 8.3 3.4 3.1 4.6 3.5 8.9 3.5 6.2 0 13.8 2.2 22.5 6.6 7.2 3.6 8.7 4.0 8.7 2.2 0-2.7 4.1-9.4 6.8-11.0 4.0-2.3 4.8-2.1 2.3.534-2.5 2.7-6.5 11.4-5.7 12.6.498.8 8.2 2.4 16.5 3.4 2.4.305 5.5-.49 10.5-2.6 7.4-3.2 9.0-3.4 24.3-2.1 8.2.671 9.2.973 8.8 2.5-.358 1.3.519 2.0 3.9 2.9 3.4.975 4.5 1.7 4.9 3.8.3 1.4.969 3.3 1.4 4.3 1.5 2.8 1.0 5.5-1.2 7.2L321.5 178l2.9-.003c1.6-.002 7.6-.902 13.2-2S351.8 174 356.4 174s8.6-.387 8.9-.861c.292-.473 2.9.315 5.7 1.7 4.7 2.3 6.6 2.6 18.5 2.9 11.0.274 13.2.088 13.2-1.1 0-1.0-1.7-1.6-5.9-2.1-9.7-1.1-8.3-2.6 2.1-2.3 5.5.161 9.4-.133 9.6-.732.1-.55-3.3-1.7-7.7-2.6-13.0-2.6-11.0-3.9 2.9-1.9 4.2.615 6.8.594 7.4-.061 1.4-1.4-.708-2.5-7.8-3.8-11.7-2.2-12.6-3.0-2.8-2.4 10.7.599 12.1-.654 3.6-3.1-5.9-1.7-9.5-1.9-18.2-.858-3.8.459-5.1.326-4.6-.457.3-.608 2.1-1.1 4.0-1.1 1.8 0 4.3-.831 5.6-1.8 2.2-1.8 2.2-1.8-6.1-2.4l-8.4-.576-6.4 4.6c-3.9 2.8-6.6 4.1-6.8 3.4-.235-.706-2.4-1.1-5.5-1.2-8.9-.035-17.5-1.7-25.4-5.0-6.2-2.6-9.0-3.2-14.6-3.1-3.8.023-8.9.748-11.2 1.6-4.2 1.5-4.3 1.5-8.5-1.2-6.7-4.5-13.1-6.2-22.7-6.2-8.1.035-8.4-.023-6.2-1.6 2.0-1.5 2.1-1.8.767-3.8-.814-1.1-3.8-3.6-6.7-5.4-4.8-3.1-5.9-3.3-14.0-3.5-4.8-.113-9.3-.538-10.0-.943s-3.5-2.2-6.4-4.0l-5.1-3.3-2.8 5.1c-3.4 6.2-3.9 4.6-1.4-4.4 1.9-7.0 1.8-7.7-.875-7.7-3.1 0-15.8-7.0-18.8-10.5-1.6-1.8-3.5-5.2-4.2-7.3s-2.3-4.8-3.8-5.9l-2.7-1.9zM200 109.6c0 4.5 7.8 20.4 8.7 17.7.212-.634-.956-4.1-2.5-7.7-3.1-6.9-6.1-11.7-6.1-9.9m-40 11.6c-1.9.641-5.5 3.2-8.1 5.7-7.0 7.0-7.9 12.4-4.3 26.4.507 1.9.489 1.9-1.0.073-.848-1.0-1.8-1.5-2.3-1.1-1.3 1.3-.524 13.8 1.1 18.4.876 2.4 1.5 7.3 1.5 11-.009 3.6.736 10.9 1.6 16.2l1.6 9.6-2.6 8.6c-1.4 4.7-2.7 10.2-2.9 12.2-.218 3.6-.137 3.6 4.7 5.0 25.9 7.0 56.5 7.9 64.7 1.8 1.0-.75 2.0-3.2 2.4-6.0l.65-4.7-3.1 1.6c-2.0 1.0-3.7 1.3-4.7.779-1.1-.67-.659-1.2 2.4-2.4 3.8-1.5 6.3-4.2 7.5-8.4.553-1.8.107-2.2-3.6-2.8l-4.2-.749 5-1.3c5.7-1.5 8.0-3.8 9.5-9.7 1.2-4.7 2.2-7.2 4.5-10.4 1.5-2.1 1.5-2.2-.757-2.2-1.3 0-5.3-.826-9.0-1.8-6.3-1.7-6.7-1.7-8.9-.061-6.2 4.7-23.2 5.3-30.1 1.0-4.0-2.5-4.4-4.1-.533-2.0 3.6 2.0 21.3 1.7 26.2-.429 3.7-1.6 3.8-1.8 2-3.1-1.0-.797-3.0-1.4-4.3-1.4s-4.2-.884-6.5-1.9c-2.6-1.2-7.3-2.0-13.7-2.4l-9.6-.573-.64 2.5c-1.3 5.4-10.1 16.9-14.9 19.5-2.2 1.2-2.0.768 3.8-7.6 4.8-7.0 9.9-15.4 9.3-15.8-.204-.134-2.0-1.1-4.2-2.2s-5.5-3.8-7.7-6.1-5.1-4.8-6.7-5.6c-3.0-1.5-5.7-4.3-4.9-5.1.269-.269 2.1.192 4.1 1.0 4.9 2.0 11.1 1.8 17.5-.538 9.3-3.5 10.1-1.8 1.3 2.7l-8.0 4.1 2.6 2.4c4.2 3.9 8.7 5.7 16.4 6.6 3.9.436 7.3.632 7.5.436s-.407-1.2-1.4-2.3c-2.8-3.1-.514-2.3 5.9 2.0 5.9 4.0 6.0 4.0 13 3.5 6.4-.497 6.7-.437 4 .82l-3 1.3 6 2.7c5.2 2.4 7.2 2.7 16 2.8 5.5.0 15.7-.355 22.8-.843l12.8-.889 5.6 2.8c5.6 2.8 5.7 2.8 21.7 2.5 8.8-.159 16.4-.671 16.9-1.1 1.4-1.3-.283-3.0-3.1-3.0-1.4-.024-5.3-.687-8.6-1.4l-6-1.4 11.5.3c12.4.347 14 .144 14-1.8 0-1.4-1.1-1.7-13.5-3.6-9.7-1.4-12.7-3.3-4-2.5 3.3.3 9.0 1.0 12.8 1.6 7.1 1.0 8.6.833 8.6-1.4 0-.87-2.0-1.7-5.7-2.5-3.1-.621-7.0-1.5-8.6-2.0-1.5-.518-4.2-.949-6-.957s-3.7-.452-4.6-.985c-2.3-1.5 5.7-1.2 14.1.523 4.9 1.0 7.5 1.1 8.2.5 1.9-1.9-2.2-3.7-19.5-7.9l-8.6-2.1-9.3 3.9c-11.1 4.6-14.3 5.7-13.4 4.3.35-.566-1.6-1.2-4.6-1.6-8.9-1.1-16.8-3.5-26.8-8.0-12.0-5.4-17.4-6.2-27.1-4.0-6.0 1.4-8.0 1.5-11.7.54-4.9-1.3-4.0-2.9 1.6-2.9 1.7-.008 4.4-.501 6-1.0l2.8-1.0-3-2.5c-7.1-5.9-16.9-7.7-29.4-5.3-4.1.796-4.3.744-2.5-.65 3.0-2.2 8.1-4.3 10.9-4.3 3.1 0 3.1-.493-.03-4.6-5.1-6.7-17.5-10.6-25.4-8.0m34 6.1c0 .237 3.2 1.6 7.2 3.1 3.9 1.4 8.7 3.5 10.5 4.6 3.9 2.3 4.3.783.5-2.1-2.8-2.2-18.3-7.0-18.3-5.6m36.5 3.0c-.55.1-2.2.617-3.8.962-2.8.628-7.6 4.9-7.6 6.8 0 .555.8.201 1.9-.786s4.5-3.0 7.7-4.6c4.7-2.3 5.8-3.7 1.7-2.4m79.8 28.1a.95.9 0 0 0 1.3 0c.366-.367.0-.667-.667-.667s-1.0.3-.667.6m66.3 3.8c-4.0 3.7-4.5 4.4-2.6 4.4 2.5 0 8.0-5.0 8.0-7.4 0-.867-.113-1.5-.25-1.5s-2.4 2.0-5.0 4.5m-170.4-1.1c1.6 1.2 11.6 3.0 12.4 2.1.645-.645-9.0-3.5-11.6-3.5-2.3.029-2.4.145-.821 1.3m48.8 16.0c.23.2 2.1.866 4.2 1.4 3.2.897 3.6.842 2.6-.396-.657-.791-2.5-1.4-4.2-1.4s-2.8.178-2.6.395M169 198.6c0 2.6 3.4 6.9 7.0 8.8 3.8 2.0 3.8 2.0 9.3-2.5 5.3-4.3 4.7-5.1-1.4-1.9-4.8 2.5-7.2 1.9-11.6-2.8-2.8-3.0-3.2-3.2-3.2-1.4m40.5 5.6-3 6.1-6.8.679c-7.9.79-11.7 2.1-13.3 4.7-1.1 1.8-1.0 1.8 2.0.544 1.7-.75 6.0-1.6 9.4-2.0 9.6-1.0 14.7-5.4 15.6-13.4.525-4.5-.554-3.5-3.8 3.2m-48.5 3.2c0 .293.6 2.0 1.3 3.8 1.5 3.7 5.0 6.5 7.9 6.5 1.5 0 .934-1.0-2.9-5.3-4.4-4.9-6.4-6.4-6.4-5.0m42.8 14.4c-1.2 2.1-2.6 3.0-5.5 3.5-8.1 1.3-9.0 1.9-3.3 2.2 6.2.378 9.9-1.6 11.1-6.1.945-3.5-.192-3.4-2.2.264m-26.6 2.5c-1.0 2.2-.903 3.3.712 6.8l1.9 4.1.014-5c.008-2.7-.312-5.8-.712-6.8-.648-1.6-.856-1.5-1.9.817m24.5 6.1c-.329.3-.342 1.2-.028 2.0.465 1.2.727 1.2 1.4.152 1.4-2.3.412-4.0-1.3-2.2m-60.7 6.9c-.551 1.4-1.0 2.9-1.0 3.3s-1.3 3.2-2.9 6.3c-6.0 11.9-6.2 27.6-.495 39.2 5.2 10.4 10.9 14.3 25.5 17.6 5.1 1.1 12.9 3.1 17.4 4.5 4.4 1.3 8.4 2.4 8.7 2.4s-.283-1.7-1.3-3.9c-1.1-2.1-2.0-4.7-2.0-5.7s-1.6-4.3-3.5-7.5-3.3-6.1-2.9-6.6c.315-.509 1.8-1.2 3.4-1.5 2.6-.579 3.0-1.2 4.4-7.5 2.7-11.9 7.7-19.7 16.6-25.6l4.3-2.8-10.4-.308c-13.3-.396-20.6 1.4-30.2 7.7-3.9 2.5-7.8 5.4-8.5 6.4s-2.2 2.1-3.2 2.6c-1.6.883-1.6.66.2-2.4 2.8-4.8 9.0-10.1 15.4-13.3 4.2-2.0 5.0-2.8 3.7-3.3-2.8-1.0 19.2-2.2 27.9-1.5 4.3.363 9.6 1.2 11.7 1.9 3.7 1.2 3.9 1.2 6.3-1.5q2.5-2.8 1.1-2.8c-.765 0-1.6-1.1-2.0-2.5-.515-2.0-1.0-2.4-2.7-1.9-18.2 5.2-24.2 5.4-49.4 2.0-3.6-.508-20.6-4.1-23.4-5.0-1.2-.4-2.0.192-2.7 2.0m85.9 6.4c-4.2 2.2-6.4 4.5-5.0 5.4.534.3 7.8 2.4 16.2 4.6s17.2 5.1 19.6 6.4l4.4 2.4 3.6-2.9c2.0-1.6 4.9-3.2 6.5-3.6l2.9-.711-3.8-1.9c-4.0-2.0-25.1-7.7-28.8-7.7-1.1 0-3.8-.9-5.8-2-4.5-2.4-5.2-2.4-9.8-.024M148 246.1c-4.0 1.1-6.6 3.2-8.6 7.0-2.4 4.7-1.5 5.1 2.9 1.0 2.8-2.6 6.6-4.7 11-6.2 3.6-1.2 6.6-2.4 6.6-2.6 0-.779-8.4-.244-12 .757m56.2 8.5c-7.7 5.3-12.5 13.0-14.9 24.5-.816 3.9-1.6 7.2-1.8 7.5s-1.8.685-3.6 1.0l-3.2.658 3.0 3.4c1.6 1.9 3.7 6.0 4.6 9.2l1.6 5.7h4.2c10.5 0 23.4-4.0 29.3-9.1 3.4-2.9 9.8-4.7 11.3-3.1.566.5-.348 1.3-2.3 2.1-2.3.857-4.5 3.1-7.9 8.2-8.1 12.2-10.5 24.5-7.1 35.9 1.3 4.5 1.5 8.5 1.0 23.9-.301 10.1-1.0 20.8-1.6 23.6-.964 4.3-.893 5.6.445 8.2.875 1.6 2.1 3.0 2.8 3.0 3.0-.034 5.7-1.3 6.2-3.1.944-2.9 5.3-6.8 8.4-7.5 2.6-.524 2.8-.926 3.3-7.2.851-9.4 3.0-17.3 10.3-36.3 3.4-9.1 7.4-20.8 8.7-26 1.3-5.1 3.3-11.6 4.5-14.5s2.8-9.7 3.7-15.2c2.0-12.2 1.1-16.0-5.1-21.8-3.7-3.4-13.4-8.1-16.8-8.1-1.3 0-10.6-2.3-23.1-5.9-9.2-2.6-11.4-2.5-16.2.698m67.2 5.1c-6.5 2.9-7.0 4.2-3.8 9.0 4.3 6.5 4.2 20.5-.179 33.2-1.2 3.4-1.1 3.7.884 4 1.2.171 7.1-.063 13.2-.521 15.9-1.2 19.9.162 27.9 9.6 6.7 7.9 16.3 15.0 22.7 16.7 2.3.636 8.2 1.4 13.2 1.8 7.4.596 10.9 1.5 20.2 5.3 6.1 2.5 13.0 5.5 15.2 6.6 2.2 1.1 4.3 1.8 4.8 1.5s1.0-2.5 1.3-5.0c.291-2.5 1.8-6.6 3.4-9.3l2.9-4.7-6.7-3.2c-3.7-1.8-10.9-6.6-16.1-10.6-15.1-12.0-23.2-16.9-32.1-19.9-8.8-2.9-11.1-4.3-19.7-12.3-5.6-5.2-8.2-6.5-16.2-8.0-3.1-.585-4.7-.537-4.7.143 0 .563-1.5-.596-3.4-2.5-4.1-4.3-8.4-7.5-14.5-11.0-4.4-2.5-4.5-2.5-8.5-.794m-126.1 2.8c-1.0 1.5-2.3 3.6-2.7 4.7-.923 2.4-.409 1.9 2.8-2.8 2.9-4.4 2.8-5.9-.131-1.8M246.2 281c.281 1.9 2.1 5.9 4.1 8.8l3.6 5.3v-3.5c0-1.9-.494-3.8-1.0-4.2-.604-.374-2.4-2.7-4.1-5.3l-3.0-4.6zM301 282.2c0 2.5 3.3 5.5 7.2 6.5 3.8 1.0 5.3-.205 1.6-1.3-1.1-.36-3.6-2.0-5.5-3.6-2.3-2.0-3.4-2.5-3.4-1.5m-85 4.7c-3.0.427-8.7 1.1-12.7 1.5s-7.0 1.0-6.7 1.4c.258.4 3.0 1.0 6.2 1.3 6.4.669 28.1-3.4 24.8-4.7-2.0-.78-3.8-.721-11.6.374m60 8.6c0 .197 2.0 1.2 4.5 2.3 3.4 1.5 5.5 1.8 9.0 1.3 2.4-.373 4.3-.868 4.0-1.1-.551-.55-17.6-3.0-17.6-2.5m-152 1.3c-3.5.481-11.4 1.5-17.5 2.3-6.0.797-14.9 1.9-19.8 2.6-4.8.64-8.6 1.3-8.4 1.4.174.1 14.2 3.3 31.2 6.9 32.9 7.0 33.1 7.1 49.5 4.4 3.0-.484 8.3-1.1 11.8-1.5 3.4-.37 5.9-1.0 5.5-1.4-.462-.442-6.3-1.9-13.0-3.3-13.0-2.7-18.1-4.8-23.6-9.6-3.6-3.2-4.6-3.3-15.6-1.8m311.8 1.9c-.921.5-3.9 4.1-6.7 7.9s-7.2 8.4-9.9 10.2c-2.6 1.8-4.7 3.8-4.5 4.5.147.7.038.8-.241.2-.905-1.8-2.3-1.0-4.3 2.2l-1.9 3.2-.003-2.6c-.003-2.2-.352-2.5-2.2-2.1-1.2.294-2.8 1.2-3.5 2.0-1.6 2.0-1.5 6.8.13 7.8 1.1.6 1.2 2.1.498 7.3-1.1 8.4-2.4 11.5-6.0 14.0-1.5 1.1-2.8 2.5-2.8 3.1s3.7 4.7 8.4 9.3l8.4 8.2 1.1-4.6c.644-2.5 4.4-11.6 8.5-20.1 4.2-8.9 8.4-19.5 9.9-25.2 2.3-8.5 5.9-19.9 8.0-25.0.79-1.9-.142-2.1-2.6-.712m5.2 1.8c-.584 1.0-3.3 10.0-6.1 19.8-3.8 13.3-6.9 21.7-12.4 33.3-4.0 8.5-7.6 16.9-8.0 18.7-.606 2.9-.456 3.2 1.9 3.2 3.4 0 10.1-6.1 13.0-11.9 1.2-2.5 3.1-7.4 4.0-10.9 1.0-3.6 3.9-9.6 6.7-14 6.5-9.9 8.9-16.8 8.8-25.3-.035-10.4-5.1-18.5-8.1-12.9m-124.6 2.2c-.215.3 2.9 1.2 7.0 2.0 5.6 1.1 7.1 1.1 6.3.194-2.1-2.6-12.1-4.2-13.4-2.2m-72.7 3.4c-.354 2.2-.92 6.2-1.2 9s-.819 5.3-1.0 5.7c-.249.4-.222.7.06.7.66 0 4.0-7.7 4.8-11 .33-1.3.025-3.8-.679-5.5l-1.2-3zm-177.4-.2c-.886 1.0-1.1 13.5-.926 49.2l.26 47.8 8.5 2.7c4.6 1.5 20.6 6.6 35.5 11.4s27.5 8.9 28.2 9.1c.99.3 1.2-10.5 1.2-52.5 0-29.1-.366-53.2-.812-53.5s-7.0-1.8-14.7-3.5c-38.9-8.3-52.1-11.2-54.0-11.7-1.1-.288-2.6.117-3.2.911M192 309.7c0 2.0 2.9 3.4 5.9 2.7 3.5-.774 5.0-2.5 2.2-2.5-1.0 0-3.3-.281-5.0-.625-1.8-.368-3.1-.212-3.1.378m18.5 1.9c-2.2.2-4.6.992-5.5 1.7-3.4 2.9-8.6 3.9-14.2 2.7-4.4-1.0-7.8-.87-21.3.851-8.7 1.1-18.4 2.4-21.4 3.0-2.9.536-5.5.975-5.7.975-.725 0-.158 104.9.57 105.4.723.4 10.7-1.1 37.6-5.9a1963 1963 0 0 1 15.9-2.7l6.9-1.1 1.1-8c1.3-9.3 3.3-14.6 6.3-16.7 1.7-1.2 2.3-3.0 3.0-10.3 1.5-14.3 1.1-32.3-.685-39.5-2.6-9.9-1.9-19.3 2.1-29.0.4-.962.3-1.6-.13-1.5-.471.0-2.6.351-4.8.574m143.6 6.1c2.5 1.9 8.3 5.1 9.4 5.1.906 0-4.6-4.4-7.2-5.8-3.4-1.8-4.8-1.3-2.2.71m38.8 14.6c-1.1 1.9-2.6 6.4-3.3 10.1-1.0 6.0-.977 6.6.784 7.9 2.5 1.8 2.9 1.7 6.0-.852 3.6-3.1 4.9-11.4 2.6-16.8-.892-2.1-2.1-3.8-2.7-3.8s-2.1 1.5-3.3 3.5m-306.1-1.4c-2.5 1.4-3.2 6.9-1.4 11.2 1.6 3.8.7 3.4 17.4 7.6 11.0 2.7 13.2 1.6 13.2-6.9 0-6.2-2.1-7.8-14.3-10.5-12.2-2.7-12.4-2.7-14.8-1.3m2.3 3.2c-1.9 1.9-1.3 6.5 1.1 8.0 2.8 1.7 20.4 5.9 21.7 5.1 1.4-.865 1.1-7.0-.284-8.2-.687-.553-5.3-1.9-10.2-3.1s-9.5-2.3-10.1-2.5-1.6.119-2.2.736m140.1 4.9c-2.8 5.6-4.9 12.7-3.8 12.7.759 0 4.6-8.0 6.5-13.7 1.0-2.9 1.5-5.2 1.1-5.2-.383.0-2.1 2.8-3.8 6.2m3.8 54.0c-1.2.714-3.1 2.6-4.1 4.3-2.3 3.8-7.8 5.9-11.0 4.2-1.1-.627-2.6-2.4-3.3-4.1-.968-2.3-1.4-2.6-2.2-1.6-2.4 3.1-4.9 16.0-3.8 19.7.794 2.5 4.1 4.3 11.0 6.0 2.7.666 8.3 3.1 12.5 5.5 8.8 5.1 13.2 6.4 22 6.6 4.7.077 5.8.317 4 .906-7.5 2.4-20.1.053-27.8-5.2-3.6-2.5-11.4-5.7-22.2-9.3-2.3-.764-3.1 3.1-1.0 4.9 2.2 1.9 10.8 4.6 14.5 4.6 1.7 0 6.3 1.5 10.2 3.4 11.7 5.6 20.5 6.4 32.9 2.9 6.3-1.7 10.3-4.7 10.3-7.7 0-2.8-1.9-4.6-9-8.0-3.0-1.4-6.4-3.6-7.6-4.7-1.7-1.5-3.0-1.8-6-1.4-3.7.577-3.7.563-1.0-.692 2.7-1.2 2.7-1.2.776-3.0-1.5-1.4-2.9-1.6-6.2-1.2l-4.2.578 3.6-1.7c3.2-1.5 3.5-1.9 2.2-3.5-1.0-1.5-2.2-1.7-6.3-1.3-5.5.535-5.8-.476-.634-2.2l3.4-1.1-1.2-3.6c-1.0-3.0-1.8-3.7-4.1-3.9-1.5-.131-3.9.345-5.2 1.0"/></svg>