<svg xmlns="http://www.w3.org/2000/svg" viewBox="0 0 512 512"><style>.b{animation:f 2.8s ease-in-out infinite}@keyframes f{0%,38%{opacity:0}50%,88%{opacity:1}100%{opacity:0}}@media (prefers-reduced-motion:reduce){.b{animation:none;opacity:0}}</style><rect width="512" height="512" fill="#fff"/><path d="M28 452H484" stroke="#cfd6de" stroke-width="6" stroke-linecap="round"/><ellipse cx="256" cy="454" rx="150" ry="7" fill="#e7ecf1"/><g transform="translate(-63.9 -54.4) scale(1.005)"><rect x="341.2" y="315.1" width="120" height="184.9" rx="8" fill="#c7d0db" stroke="#17202e" stroke-width="5"/><g fill="#5d6879" stroke="#5d6879" stroke-width="9" stroke-linejoin="round"><g id="q0"><path d="M240 394L242.1 402L248 407.9L256 410L264 407.9L269.9 402L272 394L279 298L275.9 286.5L267.5 278.1L256 275L244.5 278.1L236.1 286.5L233 298Z"/><path d="M245.5 486L246.9 491.3L250.8 495.1L256 496.5L261.3 495.1L265.1 491.3L266.5 486L272 394L269.9 386L264 380.1L256 378L248 380.1L242.1 386L240 394Z"/><path d="M296 493.5L299.8 492.5L302.5 489.8L303.5 486L302.5 482.3L299.8 479.5L296 478.5L246 474L240 475.6L235.6 480L234 486L235.6 492L240 496.4L246 498Z"/></g></g><use href="#q0" fill="#eef1f5" stroke="none"/><g fill="#5d6879" stroke="#5d6879" stroke-width="9" stroke-linejoin="round"><g id="q1"><path d="M242 263.6L243.3 269.4L247.4 273.7L253.1 275.4L258.9 274.1L263.2 270.1L265 264.4L271 192.5L269.2 185L263.9 179.3L256.5 177L249 178.8L243.3 184.1L241 191.5Z"/><path d="M242.7 329.6L243.7 333.9L246.7 337.1L250.9 338.4L255.2 337.4L258.4 334.4L259.7 330.2L265.5 264.4L264.1 258.3L259.8 253.8L253.9 252L247.9 253.4L243.3 257.6L241.5 263.5Z"/><path d="M238.9 336.9a12 12 0 1 0 24 0a12 12 0 1 0 -24 0Z"/></g></g><use href="#q1" fill="#eef1f5" stroke="none"/><g fill="#17202e" stroke="#17202e" stroke-width="9" stroke-linejoin="round"><g id="q2"><path d="M291 213L286.3 195.5L273.5 182.7L256 178L238.5 182.7L225.7 195.5L221 213L227 298L230.9 312.5L241.5 323.1L256 327L270.5 323.1L281.1 312.5L285 298Z"/><path d="M274 180L271.6 171L265 164.4L256 162L247 164.4L240.4 171L238 180L221 213L225.7 230.5L238.5 243.4L256 248L273.5 243.4L286.3 230.5L291 213Z"/><path d="M267 160L265.5 154.5L261.5 150.5L256 149L250.5 150.5L246.5 154.5L245 160L245 180L246.5 185.5L250.5 189.5L256 191L261.5 189.5L265.5 185.5L267 180Z"/><path d="M229 139a27 27 0 1 0 54 0a27 27 0 1 0 -54 0Z"/></g></g><use href="#q2" fill="#ffffff" stroke="none"/><circle cx="282" cy="139" r="4.5" fill="#17202e"/><circle cx="268.2" cy="135" r="3.2" fill="#17202e"/><g fill="#17202e" stroke="#17202e" stroke-width="9" stroke-linejoin="round"><g id="q3"><path d="M290.1 389.1L296 395L304 397.1L312 395L317.9 389.1L320 381.1L317.9 373.1L275.9 286.5L267.5 278.1L256 275L244.5 278.1L236.1 286.5L233 298L236.1 309.5Z"/><path d="M255.6 460.1L254.7 465.4L256.5 470.5L260.7 474L266 475L271.1 473.1L274.6 469L318.5 387.9L319.9 379.7L317.1 372L310.8 366.6L302.6 365.2L294.8 368L289.5 374.4Z"/><path d="M296 491L299.8 492L303.5 491L306.3 488.3L307.3 484.5L306.3 480.8L303.5 478L262.5 449.1L256.5 447.5L250.5 449.1L246.1 453.5L244.5 459.5L246.1 465.5L250.5 469.9Z"/></g></g><use href="#q3" fill="#ffffff" stroke="none"/><g fill="#17202e" stroke="#17202e" stroke-width="9" stroke-linejoin="round"><g id="q4"><path d="M293.5 254.5L298.3 258L304.3 258.5L309.7 256L313.1 251.1L313.6 245.2L311.1 239.8L267.5 182.4L261.1 177.9L253.4 177.2L246.4 180.5L241.9 186.9L241.2 194.6L244.5 201.6Z"/><path d="M338.2 303.2L341.8 305.7L346.2 306.1L350.2 304.2L352.7 300.6L353.1 296.2L351.2 292.3L311.5 239.4L306.4 235.9L300.2 235.3L294.6 238L291 243.1L290.5 249.2L293.1 254.9Z"/><path d="M337.2 303.1a12 12 0 1 0 24 0a12 12 0 1 0 -24 0Z"/></g></g><use href="#q4" fill="#ffffff" stroke="none"/></g><g class="b"><rect width="512" height="512" fill="#fff"/><path d="M28 452H484" stroke="#cfd6de" stroke-width="6" stroke-linecap="round"/><ellipse cx="256" cy="454" rx="150" ry="7" fill="#e7ecf1"/><g transform="translate(-63.9 -54.4) scale(1.005)"><rect x="206" y="476" width="110" height="24" rx="6" fill="#dbe9e1" stroke="#17202e" stroke-width="5"/><g fill="#5d6879" stroke="#5d6879" stroke-width="9" stroke-linejoin="round"><g id="q5"><path d="M240 370L242.1 378L248 383.9L256 386L264 383.9L269.9 378L272 370L279 274L275.9 262.5L267.5 254.1L256 251L244.5 254.1L236.1 262.5L233 274Z"/><path d="M245.5 462L246.9 467.3L250.8 471.1L256 472.5L261.3 471.1L265.1 467.3L266.5 462L272 370L269.9 362L264 356.1L256 354L248 356.1L242.1 362L240 370Z"/><path d="M296 469.5L299.8 468.5L302.5 465.8L303.5 462L302.5 458.3L299.8 455.5L296 454.5L246 450L240 451.6L235.6 456L234 462L235.6 468L240 472.4L246 474Z"/></g></g><use href="#q5" fill="#eef1f5" stroke="none"/><g fill="#5d6879" stroke="#5d6879" stroke-width="9" stroke-linejoin="round"><g id="q6"><path d="M210 224.6L208.5 230.4L210 236.1L214.3 240.3L220 241.9L225.8 240.3L230 236.1L269 175.5L271 168L269 160.5L263.5 155L256 153L248.5 155L243 160.5Z"/><path d="M179.6 283.3L178.5 287.5L179.6 291.8L182.8 294.9L187 296L191.3 294.9L194.4 291.8L230.4 236.4L232 230.4L230.4 224.4L226 220L220 218.4L214 220L209.6 224.4Z"/><path d="M171.5 293.6a12 12 0 1 0 24 0a12 12 0 1 0 -24 0Z"/></g></g><use href="#q6" fill="#eef1f5" stroke="none"/><g fill="#17202e" stroke="#17202e" stroke-width="9" stroke-linejoin="round"><g id="q7"><path d="M291 189L286.3 171.5L273.5 158.7L256 154L238.5 158.7L225.7 171.5L221 189L227 274L230.9 288.5L241.5 299.1L256 303L270.5 299.1L281.1 288.5L285 274Z"/><path d="M274 156L271.6 147L265 140.4L256 138L247 140.4L240.4 147L238 156L221 189L225.7 206.5L238.5 219.4L256 224L273.5 219.4L286.3 206.5L291 189Z"/><path d="M267 136L265.5 130.5L261.5 126.5L256 125L250.5 126.5L246.5 130.5L245 136L245 156L246.5 161.5L250.5 165.5L256 167L261.5 165.5L265.5 161.5L267 156Z"/><path d="M229 115a27 27 0 1 0 54 0a27 27 0 1 0 -54 0Z"/></g></g><use href="#q7" fill="#ffffff" stroke="none"/><circle cx="282" cy="115" r="4.5" fill="#17202e"/><circle cx="268.2" cy="111" r="3.2" fill="#17202e"/><g fill="#17202e" stroke="#17202e" stroke-width="9" stroke-linejoin="round"><g id="q8"><path d="M290.1 365.1L296 371L304 373.1L312 371L317.9 365.1L320 357.1L317.9 349.1L275.9 262.5L267.5 254.1L256 251L244.5 254.1L236.1 262.5L233 274L236.1 285.5Z"/><path d="M255.6 436.1L254.7 441.4L256.5 446.5L260.7 450L266 451L271.1 449.1L274.6 445L318.5 363.9L319.9 355.7L317.1 348L310.8 342.6L302.6 341.2L294.8 344L289.5 350.4Z"/><path d="M296 467L299.8 468L303.5 467L306.3 464.3L307.3 460.5L306.3 456.8L303.5 454L262.5 425.1L256.5 423.5L250.5 425.1L246.1 429.5L244.5 435.5L246.1 441.5L250.5 445.9Z"/></g></g><use href="#q8" fill="#ffffff" stroke="none"/><g fill="#17202e" stroke="#17202e" stroke-width="9" stroke-linejoin="round"><g id="q9"><path d="M282 236.1L286.3 240.3L292 241.9L297.8 240.3L302 236.1L303.5 230.4L302 224.6L269 160.5L263.5 155L256 153L248.5 155L243 160.5L241 168L243 175.5Z"/><path d="M317.6 291.8L320.8 294.9L325 296L329.3 294.9L332.4 291.8L333.5 287.5L332.4 283.3L302.4 224.4L298 220L292 218.4L286 220L281.6 224.4L280 230.4L281.6 236.4Z"/><path d="M316.5 293.6a12 12 0 1 0 24 0a12 12 0 1 0 -24 0Z"/></g></g><use href="#q9" fill="#ffffff" stroke="none"/></g></g></svg>